<svg width="48" height="49" viewBox="0 0 48 49" fill="none" xmlns="http://www.w3.org/2000/svg">
<path d="M32.38 4.5H15.62C8.34 4.5 4 8.84 4 16.12V32.86C4 40.16 8.34 44.5 15.62 44.5H32.36C39.64 44.5 43.98 40.16 43.98 32.88V16.12C44 8.84 39.66 4.5 32.38 4.5ZM27.58 30.5C28.16 31.08 28.16 32.04 27.58 32.62C27.28 32.92 26.9 33.06 26.52 33.06C26.14 33.06 25.76 32.92 25.46 32.62L18.4 25.56C17.82 24.98 17.82 24.02 18.4 23.44L25.46 16.38C26.04 15.8 27 15.8 27.58 16.38C28.16 16.96 28.16 17.92 27.58 18.5L21.58 24.5L27.58 30.5Z" fill="white"/>
</svg>
