<svg width="48" height="49" viewBox="0 0 48 49" fill="none" xmlns="http://www.w3.org/2000/svg">
<path d="M32.38 4.5H15.62C8.34 4.5 4 8.84 4 16.12V32.86C4 40.16 8.34 44.5 15.62 44.5H32.36C39.64 44.5 43.98 40.16 43.98 32.88V16.12C44 8.84 39.66 4.5 32.38 4.5ZM29.58 25.56L22.52 32.62C22.22 32.92 21.84 33.06 21.46 33.06C21.08 33.06 20.7 32.92 20.4 32.62C19.82 32.04 19.82 31.08 20.4 30.5L26.4 24.5L20.4 18.5C19.82 17.92 19.82 16.96 20.4 16.38C20.98 15.8 21.94 15.8 22.52 16.38L29.58 23.44C30.18 24.02 30.18 24.98 29.58 25.56Z" fill="white"/>
</svg>
