<svg width="48" height="48" viewBox="0 0 48 48" fill="none" xmlns="http://www.w3.org/2000/svg">
<rect width="48" height="48" rx="18" fill="#F1F1F1"/>
<path d="M32 17L27 22M27 22V17.8333M27 22H31.1667M18.6667 17C17.7462 17 17 17.7462 17 18.6667V19.5C17 26.4036 22.5964 32 29.5 32H30.3333C31.2538 32 32 31.2538 32 30.3333V27.6006C32 27.2419 31.7705 26.9235 31.4302 26.8101L27.6857 25.5619C27.2922 25.4307 26.8622 25.6088 26.6768 25.9798L25.7363 27.8608C23.699 26.9423 22.0577 25.301 21.1392 23.2637L23.0202 22.3232C23.3911 22.1378 23.5693 21.7078 23.4381 21.3143L22.1899 17.5698C22.0765 17.2295 21.7581 17 21.3994 17H18.6667Z" stroke="#203E76" stroke-width="2" stroke-linecap="round" stroke-linejoin="round"/>
</svg>
