<svg width="312" height="98" viewBox="0 0 312 98" fill="none" xmlns="http://www.w3.org/2000/svg">
<rect width="312" height="98" rx="10" fill="#203E76" fill-opacity="0.8"/>
<path d="M24.4133 29.8733C24.1866 29.9533 23.8133 29.9533 23.5866 29.8733C21.6533 29.2133 17.3333 26.46 17.3333 21.7933C17.3333 19.7333 18.9933 18.0667 21.04 18.0667C22.2533 18.0667 23.3266 18.6533 24 19.56C24.6733 18.6533 25.7533 18.0667 26.96 18.0667C29.0066 18.0667 30.6666 19.7333 30.6666 21.7933C30.6666 26.46 26.3466 29.2133 24.4133 29.8733Z" stroke="white" stroke-width="1.5" stroke-linecap="round" stroke-linejoin="round"/>
<path d="M147.779 30.0957C147.466 30.0957 147.163 30.0725 146.87 30.0261C146.577 29.9826 146.303 29.913 146.048 29.8174C145.793 29.7217 145.56 29.5986 145.348 29.4478C145.139 29.2971 144.96 29.1145 144.809 28.9C144.658 28.6884 144.541 28.442 144.457 28.1609C144.376 27.8826 144.335 27.5667 144.335 27.213C144.335 26.958 144.345 26.7159 144.366 26.487C144.389 26.2551 144.424 26.0261 144.47 25.8C144.516 25.5739 144.576 25.3449 144.648 25.113C144.724 24.8812 144.813 24.6348 144.918 24.3739L146.035 24.8391C145.951 25.0478 145.879 25.2362 145.818 25.4043C145.76 25.5725 145.711 25.7261 145.67 25.8652C145.629 26.0014 145.597 26.1275 145.574 26.2435C145.551 26.3594 145.534 26.471 145.522 26.5783C145.511 26.6826 145.503 26.787 145.5 26.8913C145.497 26.9928 145.496 27.1 145.496 27.213C145.496 27.4304 145.531 27.6188 145.6 27.7783C145.67 27.9377 145.764 28.0725 145.883 28.1826C146.002 28.2928 146.138 28.3826 146.292 28.4522C146.448 28.5246 146.611 28.5797 146.779 28.6174C146.947 28.6551 147.116 28.6812 147.287 28.6957C147.461 28.7101 147.625 28.7174 147.779 28.7174C147.854 28.7174 147.966 28.7116 148.113 28.7C148.261 28.6913 148.422 28.6739 148.596 28.6478C148.773 28.6246 148.953 28.5928 149.135 28.5522C149.321 28.5116 149.489 28.4609 149.639 28.4C149.79 28.342 149.913 28.2725 150.009 28.1913C150.105 28.113 150.153 28.0203 150.153 27.913C149.944 27.7565 149.658 27.6159 149.296 27.4913C148.934 27.3667 148.49 27.2725 147.966 27.2087L148.144 25.887H151.713V27.2609H151.148C151.209 27.3768 151.253 27.4928 151.279 27.6087C151.308 27.7275 151.324 27.829 151.326 27.913C151.312 28.1855 151.242 28.4275 151.118 28.6391C150.996 28.8536 150.838 29.042 150.644 29.2043C150.45 29.3667 150.229 29.5043 149.983 29.6174C149.737 29.7304 149.484 29.8217 149.226 29.8913C148.968 29.9638 148.713 30.0159 148.461 30.0478C148.212 30.0797 147.984 30.0957 147.779 30.0957ZM151.544 25.887H152.131C152.253 25.887 152.386 25.8768 152.531 25.8565C152.679 25.8362 152.815 25.8043 152.94 25.7609C153.067 25.7145 153.173 25.6536 153.257 25.5783C153.344 25.5 153.387 25.4043 153.387 25.2913C153.387 25.2217 153.367 25.1188 153.327 24.9826C153.286 24.8435 153.232 24.6899 153.166 24.5217C153.099 24.3507 153.024 24.1725 152.94 23.987C152.855 23.8014 152.771 23.6246 152.687 23.4565L153.931 22.8391C154.012 23.0217 154.092 23.2159 154.17 23.4217C154.251 23.6275 154.324 23.8362 154.387 24.0478C154.451 24.2594 154.502 24.471 154.54 24.6826C154.58 24.8913 154.6 25.0913 154.6 25.2826C154.6 25.6304 154.542 25.929 154.427 26.1783C154.311 26.4275 154.148 26.6333 153.94 26.7957C153.731 26.9551 153.482 27.0725 153.192 27.1478C152.902 27.2232 152.583 27.2609 152.235 27.2609H151.544V25.887ZM152.948 29.6435L151.983 28.6783L152.948 27.713L153.913 28.6783L152.948 29.6435ZM155.68 27.2739C155.694 27.0362 155.709 26.7899 155.723 26.5348C155.738 26.2797 155.749 26.0275 155.758 25.7783C155.77 25.529 155.777 25.287 155.78 25.0522C155.783 24.8174 155.78 24.6014 155.771 24.4043C155.754 23.9696 155.736 23.5899 155.719 23.2652C155.702 22.9377 155.684 22.6507 155.667 22.4043C155.652 22.1551 155.636 21.9391 155.619 21.7565C155.602 21.571 155.583 21.4014 155.562 21.2478L156.902 20.8217C156.942 21.1522 156.974 21.4797 156.997 21.8043C157.023 22.1261 157.044 22.4333 157.058 22.7261C157.073 23.0159 157.081 23.287 157.084 23.5391C157.09 23.7884 157.093 24.0058 157.093 24.1913C157.093 24.3913 157.091 24.6072 157.089 24.8391C157.089 25.071 157.086 25.3116 157.08 25.5609C157.077 25.8101 157.071 26.0623 157.062 26.3174C157.054 26.5725 157.041 26.8217 157.023 27.0652L155.68 27.2739ZM154.532 20.3522C154.558 20.2072 154.609 20.0681 154.684 19.9348C154.76 19.8014 154.849 19.6841 154.954 19.5826C155.058 19.4812 155.173 19.4014 155.297 19.3435C155.425 19.2826 155.555 19.2522 155.689 19.2522C155.825 19.2522 155.945 19.2681 156.049 19.3C156.157 19.3319 156.257 19.3681 156.349 19.4087C156.474 19.4609 156.583 19.4957 156.675 19.513C156.771 19.5275 156.858 19.5217 156.936 19.4957C157.017 19.4696 157.094 19.4232 157.167 19.3565C157.242 19.2899 157.322 19.2014 157.406 19.0913L158.002 19.4739C157.999 19.4826 157.983 19.5072 157.954 19.5478C157.925 19.5884 157.884 19.6377 157.832 19.6957C157.783 19.7536 157.722 19.8159 157.649 19.8826C157.577 19.9464 157.496 20.0072 157.406 20.0652C157.316 20.1203 157.219 20.1667 157.115 20.2043C157.01 20.242 156.9 20.2623 156.784 20.2652C156.668 20.2681 156.562 20.2551 156.467 20.2261C156.371 20.1971 156.278 20.1652 156.189 20.1304C156.099 20.0957 156.006 20.0652 155.91 20.0391C155.817 20.0101 155.716 19.9971 155.606 20C155.531 20.0029 155.47 20.0275 155.423 20.0739C155.377 20.1174 155.341 20.1696 155.315 20.2304C155.289 20.2913 155.268 20.3536 155.254 20.4174C155.242 20.4812 155.231 20.5304 155.219 20.5652L154.532 20.3522ZM164.388 27.2609C164.324 27.2609 164.24 27.2565 164.135 27.2478C164.031 27.2391 163.912 27.2072 163.779 27.1522C163.715 27.5116 163.595 27.8522 163.418 28.1739C163.244 28.4986 163.028 28.8014 162.77 29.0826C162.512 29.3667 162.218 29.6275 161.888 29.8652C161.557 30.1029 161.205 30.3159 160.831 30.5043L160.035 29.4043C160.241 29.3 160.449 29.1855 160.657 29.0609C160.866 28.9391 161.064 28.8087 161.253 28.6696C161.444 28.5333 161.621 28.3899 161.783 28.2391C161.949 28.0913 162.092 27.9377 162.214 27.7783C162.335 27.6188 162.431 27.4551 162.501 27.287C162.57 27.1217 162.605 26.9536 162.605 26.7826C162.605 26.6696 162.583 26.5261 162.54 26.3522C162.496 26.1783 162.441 25.9913 162.375 25.7913C162.308 25.5913 162.234 25.3899 162.153 25.187C162.072 24.9841 161.993 24.7986 161.918 24.6304L163.175 24.0826C163.291 24.4304 163.401 24.7203 163.505 24.9522C163.612 25.1841 163.715 25.3696 163.814 25.5087C163.912 25.6478 164.007 25.7464 164.096 25.8043C164.189 25.8594 164.28 25.887 164.37 25.887H164.475V27.2609H164.388ZM164.298 25.887H164.628C164.776 25.887 164.896 25.8739 164.989 25.8478C165.085 25.8217 165.159 25.7768 165.211 25.713C165.266 25.6493 165.302 25.5638 165.32 25.4565C165.34 25.3464 165.349 25.2087 165.346 25.0435C165.346 25.0203 165.341 24.9362 165.333 24.7913C165.324 24.6435 165.312 24.4594 165.298 24.2391C165.286 24.0159 165.27 23.7681 165.25 23.4957C165.233 23.2203 165.214 22.942 165.193 22.6609C165.176 22.3797 165.159 22.1058 165.141 21.8391C165.124 21.5725 165.107 21.3377 165.089 21.1348C165.075 20.9319 165.062 20.771 165.05 20.6522C165.041 20.5478 165.035 20.4928 165.033 20.487L166.411 20.1478C166.414 20.1942 166.422 20.313 166.437 20.5043C166.454 20.6957 166.475 20.9841 166.498 21.3696C166.521 21.7522 166.547 22.2435 166.576 22.8435C166.608 23.4406 166.64 24.1681 166.672 25.0261C166.683 25.3536 166.65 25.6551 166.572 25.9304C166.493 26.2029 166.369 26.4377 166.198 26.6348C166.027 26.8319 165.811 26.9855 165.55 27.0957C165.289 27.2058 164.982 27.2609 164.628 27.2609H164.298V25.887ZM166.977 28.987C167.386 28.9058 167.758 28.8029 168.095 28.6783C168.431 28.5565 168.725 28.4188 168.977 28.2652C169.232 28.1145 169.442 27.9536 169.608 27.7826C169.776 27.6116 169.895 27.4377 169.964 27.2609C169.84 27.2609 169.708 27.258 169.569 27.2522C169.429 27.2493 169.315 27.2449 169.225 27.2391C168.938 27.2159 168.677 27.1609 168.442 27.0739C168.208 26.9899 168.005 26.8739 167.834 26.7261C167.666 26.5754 167.535 26.3928 167.442 26.1783C167.35 25.9638 167.303 25.7174 167.303 25.4391C167.303 25.2623 167.322 25.0812 167.36 24.8957C167.397 24.7101 167.451 24.529 167.521 24.3522C167.593 24.1754 167.682 24.0087 167.786 23.8522C167.893 23.6957 168.013 23.558 168.147 23.4391C168.28 23.3203 168.426 23.2275 168.586 23.1609C168.748 23.0913 168.922 23.0565 169.108 23.0565C169.328 23.0565 169.531 23.0971 169.716 23.1783C169.902 23.2565 170.071 23.3638 170.225 23.5C170.382 23.6362 170.519 23.7971 170.638 23.9826C170.76 24.1652 170.864 24.3623 170.951 24.5739C171.041 24.7826 171.113 25 171.169 25.2261C171.226 25.4493 171.267 25.6696 171.29 25.887H171.477V27.2609H171.199C171.086 27.687 170.905 28.0725 170.655 28.4174C170.409 28.7652 170.113 29.0681 169.769 29.3261C169.424 29.5841 169.04 29.7971 168.616 29.9652C168.196 30.1333 167.757 30.2522 167.299 30.3217L166.977 28.987ZM169.108 24.4348C169.047 24.4232 168.977 24.4449 168.899 24.5C168.821 24.5522 168.748 24.6246 168.682 24.7174C168.615 24.8072 168.558 24.9072 168.512 25.0174C168.466 25.1275 168.444 25.2333 168.447 25.3348C168.45 25.4333 168.482 25.5145 168.542 25.5783C168.603 25.642 168.682 25.6957 168.777 25.7391C168.873 25.7797 168.98 25.8101 169.099 25.8304C169.221 25.8507 169.341 25.8652 169.46 25.8739C169.579 25.8826 169.69 25.887 169.795 25.887H170.064C170.021 25.7072 169.969 25.5348 169.908 25.3696C169.85 25.2043 169.782 25.0565 169.703 24.9261C169.625 24.7957 169.537 24.687 169.438 24.6C169.34 24.513 169.229 24.458 169.108 24.4348ZM171.3 25.887H171.713C171.881 25.887 172.053 25.8855 172.23 25.8826C172.407 25.8797 172.577 25.8681 172.739 25.8478C172.901 25.8246 173.049 25.7899 173.182 25.7435C173.319 25.6971 173.429 25.6304 173.513 25.5435C173.6 25.4565 173.656 25.3449 173.682 25.2087C173.708 25.0725 173.693 24.9043 173.635 24.7043C173.614 24.6319 173.571 24.5449 173.504 24.4435C173.437 24.3391 173.353 24.2261 173.252 24.1043C173.153 23.9797 173.039 23.8493 172.908 23.713C172.778 23.5768 172.639 23.4377 172.491 23.2957C172.343 23.1507 172.188 23.0072 172.026 22.8652C171.864 22.7203 171.701 22.5812 171.539 22.4478L171.674 21.2652L175.326 19.6391L175.852 20.8043L172.965 22.1435C173.107 22.242 173.253 22.3594 173.404 22.4957C173.555 22.6319 173.701 22.7812 173.843 22.9435C173.985 23.1029 174.119 23.2725 174.243 23.4522C174.368 23.6319 174.477 23.8159 174.569 24.0043C174.662 24.1928 174.735 24.3826 174.787 24.5739C174.842 24.7652 174.868 24.9522 174.865 25.1348C174.862 25.4362 174.806 25.7174 174.695 25.9783C174.585 26.2362 174.433 26.4609 174.239 26.6522C174.045 26.8406 173.813 26.9884 173.543 27.0957C173.277 27.2058 172.982 27.2609 172.661 27.2609H171.3V25.887Z" fill="white"/>
<path d="M287.333 23.9999H287.34M292 23.9999H292.007M296.667 23.9999H296.673M288 23.9999C288 24.3681 287.702 24.6666 287.333 24.6666C286.965 24.6666 286.667 24.3681 286.667 23.9999C286.667 23.6317 286.965 23.3333 287.333 23.3333C287.702 23.3333 288 23.6317 288 23.9999ZM292.667 23.9999C292.667 24.3681 292.368 24.6666 292 24.6666C291.632 24.6666 291.333 24.3681 291.333 23.9999C291.333 23.6317 291.632 23.3333 292 23.3333C292.368 23.3333 292.667 23.6317 292.667 23.9999ZM297.333 23.9999C297.333 24.3681 297.035 24.6666 296.667 24.6666C296.298 24.6666 296 24.3681 296 23.9999C296 23.6317 296.298 23.3333 296.667 23.3333C297.035 23.3333 297.333 23.6317 297.333 23.9999Z" stroke="white" stroke-width="2" stroke-linecap="round" stroke-linejoin="round"/>
<path d="M34.7007 68.0181L39.2393 65.3977C39.6198 65.1781 40.1063 65.3084 40.326 65.6889L40.4227 65.8564C41.0482 66.9399 41.0715 68.2692 40.4842 69.3739C39.7688 70.7197 38.1343 71.283 36.7416 70.6637L34.7944 69.7979C34.0476 69.4658 33.9929 68.4268 34.7007 68.0181Z" stroke="#F1F1F1" stroke-width="2"/>
<path d="M34.7008 69.9816L39.2394 72.602C39.6198 72.8217 39.7502 73.3082 39.5305 73.6887L39.4338 73.8562C38.8083 74.9396 37.6687 75.6244 36.4184 75.6682C34.8952 75.7215 33.5901 74.5877 33.4301 73.072L33.2063 70.9527C33.1205 70.1399 33.993 69.573 34.7008 69.9816Z" stroke="#F1F1F1" stroke-width="2"/>
<path d="M33 70.9638V76.2045C33 76.6438 32.6438 77 32.2045 77H32.0111C30.76 77 29.5972 76.3555 28.9341 75.2946C28.1263 74.0021 28.4557 72.305 29.6883 71.4085L31.4118 70.155C32.0728 69.6743 33 70.1465 33 70.9638Z" stroke="#F1F1F1" stroke-width="2"/>
<path d="M31.2993 69.9819L26.7607 72.6023C26.3802 72.8219 25.8937 72.6916 25.674 72.3111L25.5773 72.1436C24.9518 71.0601 24.9285 69.7308 25.5158 68.6261C26.2312 67.2803 27.8657 66.717 29.2584 67.3363L31.2056 68.2021C31.9524 68.5342 32.0071 69.5732 31.2993 69.9819Z" stroke="#F1F1F1" stroke-width="2"/>
<path d="M31.2991 68.0181L26.7605 65.3977C26.38 65.1781 26.2496 64.6916 26.4693 64.3111L26.566 64.1436C27.1915 63.0601 28.3311 62.3753 29.5814 62.3315C31.1046 62.2782 32.4097 63.412 32.5698 64.9278L32.7935 67.0471C32.8794 67.8599 32.0069 68.4268 31.2991 68.0181Z" stroke="#F1F1F1" stroke-width="2"/>
<path d="M33 67.0362V61.7955C33 61.3562 33.3562 61 33.7955 61H33.9889C35.24 61 36.4028 61.6445 37.0659 62.7054C37.8737 63.9979 37.5443 65.695 36.3117 66.5915L34.5882 67.845C33.9272 68.3257 33 67.8535 33 67.0362Z" stroke="#F1F1F1" stroke-width="2"/>
<path d="M16 48.5H50V47.5H16V48.5ZM53.5 52V86H54.5V52H53.5ZM50 89.5H16V90.5H50V89.5ZM12.5 86V52H11.5V86H12.5ZM16 89.5C14.067 89.5 12.5 87.933 12.5 86H11.5C11.5 88.4853 13.5147 90.5 16 90.5V89.5ZM53.5 86C53.5 87.933 51.933 89.5 50 89.5V90.5C52.4853 90.5 54.5 88.4853 54.5 86H53.5ZM50 48.5C51.933 48.5 53.5 50.067 53.5 52H54.5C54.5 49.5147 52.4853 47.5 50 47.5V48.5ZM16 47.5C13.5147 47.5 11.5 49.5147 11.5 52H12.5C12.5 50.067 14.067 48.5 16 48.5V47.5Z" fill="white"/>
<path d="M157.701 69.9816L162.239 72.602C162.62 72.8217 162.75 73.3082 162.531 73.6887L162.434 73.8562C161.808 74.9396 160.669 75.6244 159.418 75.6682C157.895 75.7215 156.59 74.5877 156.43 73.072L156.206 70.9527C156.12 70.1399 156.993 69.573 157.701 69.9816Z" stroke="white" stroke-width="2"/>
<path d="M154.299 69.9819L149.761 72.6023C149.38 72.8219 148.894 72.6916 148.674 72.3111L148.577 72.1436C147.952 71.0601 147.929 69.7308 148.516 68.6261C149.231 67.2803 150.866 66.717 152.258 67.3363L154.206 68.2021C154.952 68.5342 155.007 69.5732 154.299 69.9819Z" stroke="white" stroke-width="2"/>
<path d="M156 67.0362V61.7955C156 61.3562 156.356 61 156.795 61H156.989C158.24 61 159.403 61.6445 160.066 62.7054C160.874 63.9979 160.544 65.695 159.312 66.5915L157.588 67.845C156.927 68.3257 156 67.8535 156 67.0362Z" stroke="white" stroke-width="2"/>
<path d="M139 48.5H173V47.5H139V48.5ZM176.5 52V86H177.5V52H176.5ZM173 89.5H139V90.5H173V89.5ZM135.5 86V52H134.5V86H135.5ZM139 89.5C137.067 89.5 135.5 87.933 135.5 86H134.5C134.5 88.4853 136.515 90.5 139 90.5V89.5ZM176.5 86C176.5 87.933 174.933 89.5 173 89.5V90.5C175.485 90.5 177.5 88.4853 177.5 86H176.5ZM173 48.5C174.933 48.5 176.5 50.067 176.5 52H177.5C177.5 49.5147 175.485 47.5 173 47.5V48.5ZM139 47.5C136.515 47.5 134.5 49.5147 134.5 52H135.5C135.5 50.067 137.067 48.5 139 48.5V47.5Z" fill="white"/>
<path d="M279 75C278.56 75 278.132 74.8547 277.782 74.5867C277.433 74.3187 277.182 73.9429 277.068 73.5176" stroke="white" stroke-width="2" stroke-linecap="round"/>
<path d="M277.424 61.6787C278.055 60.6061 278.371 60.0698 278.822 59.9882C278.94 59.967 279.06 59.967 279.178 59.9882C279.629 60.0698 279.945 60.6061 280.576 61.6787L282.244 64.5148C283.41 66.4969 284.32 68.619 284.951 70.8301V70.8301C285.978 74.4232 283.28 78 279.543 78H278.457C274.72 78 272.022 74.4232 273.049 70.8301V70.8301C273.68 68.619 274.59 66.4969 275.756 64.5148L277.424 61.6787Z" stroke="white" stroke-width="2"/>
<path d="M262 48.5H296V47.5H262V48.5ZM299.5 52V86H300.5V52H299.5ZM296 89.5H262V90.5H296V89.5ZM258.5 86V52H257.5V86H258.5ZM262 89.5C260.067 89.5 258.5 87.933 258.5 86H257.5C257.5 88.4853 259.515 90.5 262 90.5V89.5ZM299.5 86C299.5 87.933 297.933 89.5 296 89.5V90.5C298.485 90.5 300.5 88.4853 300.5 86H299.5ZM296 48.5C297.933 48.5 299.5 50.067 299.5 52H300.5C300.5 49.5147 298.485 47.5 296 47.5V48.5ZM262 47.5C259.515 47.5 257.5 49.5147 257.5 52H258.5C258.5 50.067 260.067 48.5 262 48.5V47.5Z" fill="white"/>
</svg>
