<svg width="24" height="25" viewBox="0 0 24 25" fill="none" xmlns="http://www.w3.org/2000/svg">
<path d="M12 0.802498C5.40376 0.802498 0.0543823 6.15187 0.0543823 12.75C0.0543823 19.3481 5.40376 24.6956 12 24.6956C18.5981 24.6956 23.9456 19.3481 23.9456 12.75C23.9456 6.15187 18.5981 0.802498 12 0.802498ZM12 23.5519C6.04313 23.5519 1.19813 18.7069 1.19813 12.7519C1.19813 6.79312 6.04313 1.94812 12 1.94812C17.9569 1.94812 22.8019 6.79312 22.8019 12.75C22.8019 18.7069 17.9569 23.5519 12 23.5519Z" fill="white"/>
<path d="M16.1888 15.0994C16.1778 15.0783 16.1624 15.0599 16.1436 15.0453C16.1248 15.0307 16.1031 15.0204 16.08 15.015C16.0313 15.0056 15.9825 15.015 15.945 15.0469C15.0881 15.7256 13.6163 16.2375 12.5213 16.2375C10.4025 16.2375 8.92126 14.8031 8.92126 12.75C8.92126 10.6969 10.4025 9.2625 12.5213 9.2625C13.6669 9.2625 14.8425 9.63187 15.5888 10.2262C15.6263 10.2562 15.675 10.2675 15.7219 10.2581C15.7688 10.2487 15.8081 10.2187 15.8325 10.1775L17.5294 7.08562C17.5688 7.01625 17.55 6.93 17.4881 6.88125C16.2056 5.865 14.5744 5.37 12.5063 5.37C8.10001 5.37 4.90314 8.475 4.90314 12.7537C4.90314 17.0325 8.10001 20.1375 12.5063 20.1375C14.5219 20.1375 16.2638 19.5244 17.6813 18.3131C17.7375 18.2644 17.7544 18.1837 17.7206 18.1162L16.1888 15.0994Z" fill="white"/>
</svg>
