<svg width="312" height="98" viewBox="0 0 312 98" fill="none" xmlns="http://www.w3.org/2000/svg">
<rect width="312" height="98" rx="10" fill="white" fill-opacity="0.8"/>
<path d="M26.96 18.0667C25.7533 18.0667 24.6733 18.6533 24 19.5533C23.3266 18.6533 22.2466 18.0667 21.04 18.0667C18.9933 18.0667 17.3333 19.7333 17.3333 21.7933C17.3333 22.5866 17.46 23.32 17.68 24C18.7333 27.3333 21.98 29.3266 23.5866 29.8733C23.8133 29.9533 24.1866 29.9533 24.4133 29.8733C26.02 29.3266 29.2666 27.3333 30.32 24C30.54 23.32 30.6666 22.5866 30.6666 21.7933C30.6666 19.7333 29.0066 18.0667 26.96 18.0667Z" fill="#FF7676"/>
<path d="M144.781 30.0957C144.468 30.0957 144.165 30.0725 143.872 30.0261C143.579 29.9826 143.305 29.913 143.05 29.8174C142.795 29.7217 142.562 29.5986 142.35 29.4478C142.141 29.2971 141.962 29.1145 141.811 28.9C141.66 28.6884 141.543 28.442 141.459 28.1609C141.378 27.8826 141.337 27.5667 141.337 27.213C141.337 26.958 141.347 26.7159 141.368 26.487C141.391 26.2551 141.425 26.0261 141.472 25.8C141.518 25.5739 141.578 25.3449 141.65 25.113C141.725 24.8812 141.815 24.6348 141.92 24.3739L143.037 24.8391C142.953 25.0478 142.881 25.2362 142.82 25.4043C142.762 25.5725 142.712 25.7261 142.672 25.8652C142.631 26.0014 142.599 26.1275 142.576 26.2435C142.553 26.3594 142.536 26.471 142.524 26.5783C142.512 26.6826 142.505 26.787 142.502 26.8913C142.499 26.9928 142.498 27.1 142.498 27.213C142.498 27.4304 142.533 27.6188 142.602 27.7783C142.672 27.9377 142.766 28.0725 142.885 28.1826C143.004 28.2928 143.14 28.3826 143.294 28.4522C143.45 28.5246 143.612 28.5797 143.781 28.6174C143.949 28.6551 144.118 28.6812 144.289 28.6957C144.463 28.7101 144.627 28.7174 144.781 28.7174C144.856 28.7174 144.968 28.7116 145.115 28.7C145.263 28.6913 145.424 28.6739 145.598 28.6478C145.775 28.6246 145.954 28.5928 146.137 28.5522C146.323 28.5116 146.491 28.4609 146.641 28.4C146.792 28.342 146.915 28.2725 147.011 28.1913C147.107 28.113 147.154 28.0203 147.154 27.913C146.946 27.7565 146.66 27.6159 146.298 27.4913C145.936 27.3667 145.492 27.2725 144.968 27.2087L145.146 25.887H148.715V27.2609H148.15C148.211 27.3768 148.254 27.4928 148.281 27.6087C148.31 27.7275 148.325 27.829 148.328 27.913C148.314 28.1855 148.244 28.4275 148.12 28.6391C147.998 28.8536 147.84 29.042 147.646 29.2043C147.452 29.3667 147.231 29.5043 146.985 29.6174C146.739 29.7304 146.486 29.8217 146.228 29.8913C145.97 29.9638 145.715 30.0159 145.463 30.0478C145.214 30.0797 144.986 30.0957 144.781 30.0957ZM148.698 25.887C148.805 25.887 148.934 25.887 149.085 25.887C149.239 25.8841 149.401 25.8797 149.572 25.8739C149.746 25.8652 149.923 25.8536 150.102 25.8391C150.282 25.8246 150.453 25.8029 150.615 25.7739C150.781 25.7449 150.931 25.7087 151.068 25.6652C151.204 25.6217 151.315 25.5681 151.402 25.5043C151.023 25.542 150.673 25.5522 150.355 25.5348C150.039 25.5174 149.765 25.4565 149.533 25.3522C149.304 25.2478 149.124 25.0928 148.994 24.887C148.866 24.6783 148.801 24.4 148.798 24.0522C148.798 23.8928 148.814 23.729 148.846 23.5609C148.878 23.3899 148.926 23.2232 148.989 23.0609C149.056 22.8957 149.137 22.7406 149.233 22.5957C149.328 22.4478 149.439 22.3188 149.563 22.2087C149.691 22.0986 149.831 22.0116 149.985 21.9478C150.142 21.8812 150.311 21.8478 150.494 21.8478C150.723 21.8478 150.931 21.8913 151.12 21.9783C151.311 22.0652 151.482 22.1841 151.633 22.3348C151.786 22.4826 151.92 22.6551 152.033 22.8522C152.149 23.0493 152.244 23.2565 152.32 23.4739C152.395 23.6913 152.452 23.913 152.489 24.1391C152.527 24.3652 152.546 24.5826 152.546 24.7913C152.546 25.1391 152.497 25.442 152.398 25.7C152.302 25.958 152.168 26.1783 151.994 26.3609C151.82 26.5435 151.613 26.6942 151.372 26.813C151.134 26.929 150.872 27.0203 150.585 27.087C150.301 27.1536 149.999 27.1986 149.681 27.2217C149.362 27.2478 149.036 27.2609 148.702 27.2609H148.546V25.887H148.698ZM150.485 23.2304C150.418 23.2275 150.349 23.2478 150.276 23.2913C150.207 23.3319 150.143 23.387 150.085 23.4565C150.027 23.5261 149.978 23.6058 149.937 23.6957C149.899 23.7855 149.881 23.8768 149.881 23.9696C149.881 24.0565 149.907 24.1275 149.959 24.1826C150.014 24.2377 150.084 24.2812 150.168 24.313C150.252 24.3449 150.346 24.3681 150.45 24.3826C150.557 24.3942 150.662 24.4014 150.763 24.4043C150.868 24.4043 150.965 24.4029 151.055 24.4C151.144 24.3942 151.217 24.3884 151.272 24.3826C151.246 24.2522 151.211 24.1203 151.168 23.987C151.127 23.8536 151.075 23.7319 151.011 23.6217C150.947 23.5116 150.872 23.4203 150.785 23.3478C150.698 23.2754 150.598 23.2362 150.485 23.2304ZM150.468 20.587L149.65 21.4043L148.807 20.5652L149.642 19.7261L150.468 20.5522L151.285 19.7348L152.128 20.5739L151.294 21.413L150.468 20.587ZM156.282 27.2609C156.218 27.2609 156.134 27.2565 156.03 27.2478C155.926 27.2391 155.807 27.2072 155.674 27.1522C155.61 27.5116 155.489 27.8522 155.313 28.1739C155.139 28.4986 154.923 28.8014 154.665 29.0826C154.407 29.3667 154.113 29.6275 153.782 29.8652C153.452 30.1029 153.1 30.3159 152.726 30.5043L151.93 29.4043C152.136 29.3 152.343 29.1855 152.552 29.0609C152.76 28.9391 152.959 28.8087 153.147 28.6696C153.339 28.5333 153.516 28.3899 153.678 28.2391C153.843 28.0913 153.987 27.9377 154.108 27.7783C154.23 27.6188 154.326 27.4551 154.395 27.287C154.465 27.1217 154.5 26.9536 154.5 26.7826C154.5 26.6696 154.478 26.5261 154.434 26.3522C154.391 26.1783 154.336 25.9913 154.269 25.7913C154.202 25.5913 154.129 25.3899 154.047 25.187C153.966 24.9841 153.888 24.7986 153.813 24.6304L155.069 24.0826C155.185 24.4304 155.295 24.7203 155.4 24.9522C155.507 25.1841 155.61 25.3696 155.708 25.5087C155.807 25.6478 155.901 25.7464 155.991 25.8043C156.084 25.8594 156.175 25.887 156.265 25.887H156.369V27.2609H156.282ZM156.192 25.887H156.779C156.901 25.887 157.034 25.8768 157.179 25.8565C157.327 25.8362 157.463 25.8043 157.588 25.7609C157.716 25.7145 157.821 25.6536 157.905 25.5783C157.992 25.5 158.036 25.4043 158.036 25.2913C158.036 25.2217 158.016 25.1188 157.975 24.9826C157.934 24.8435 157.881 24.6899 157.814 24.5217C157.747 24.3507 157.672 24.1725 157.588 23.987C157.504 23.8014 157.42 23.6246 157.336 23.4565L158.579 22.8391C158.66 23.0217 158.74 23.2159 158.818 23.4217C158.9 23.6275 158.972 23.8362 159.036 24.0478C159.1 24.2594 159.15 24.471 159.188 24.6826C159.229 24.8913 159.249 25.0913 159.249 25.2826C159.249 25.6304 159.191 25.929 159.075 26.1783C158.959 26.4275 158.797 26.6333 158.588 26.7957C158.379 26.9551 158.13 27.0725 157.84 27.1478C157.55 27.2232 157.231 27.2609 156.884 27.2609H156.192V25.887ZM157.597 29.6435L156.631 28.6783L157.597 27.713L158.562 28.6783L157.597 29.6435ZM164.521 27.2609C164.286 27.2609 164.048 27.2203 163.808 27.1391C163.57 27.058 163.353 26.942 163.156 26.7913C162.961 26.6377 162.802 26.4522 162.677 26.2348C162.556 26.0145 162.495 25.7667 162.495 25.4913C162.495 24.9116 162.751 24.3101 163.264 23.687C163.305 23.6377 163.338 23.5971 163.364 23.5652C163.393 23.5333 163.419 23.5043 163.443 23.4783C163.466 23.4522 163.487 23.429 163.508 23.4087L163.586 23.3304L163.321 23.1043L164.186 22.0478C164.334 22.158 164.509 22.3072 164.712 22.4957C164.918 22.6812 165.157 22.9188 165.43 23.2087C166.18 24.0638 166.556 24.8246 166.556 25.4913C166.556 25.7812 166.496 26.0362 166.377 26.2565C166.258 26.4768 166.103 26.6623 165.912 26.813C165.721 26.9609 165.503 27.0725 165.26 27.1478C165.016 27.2232 164.77 27.2609 164.521 27.2609ZM165.364 25.4913C165.364 25.4014 165.335 25.3 165.277 25.187C165.219 25.0739 165.143 24.9565 165.047 24.8348C164.954 24.7101 164.85 24.5855 164.734 24.4609C164.618 24.3333 164.502 24.2116 164.386 24.0957C164.308 24.1826 164.225 24.2812 164.138 24.3913C164.051 24.4986 163.972 24.613 163.899 24.7348C163.827 24.8565 163.767 24.9826 163.721 25.113C163.674 25.2406 163.654 25.3667 163.66 25.4913C163.663 25.5609 163.696 25.6217 163.76 25.6739C163.824 25.7261 163.899 25.7681 163.986 25.8C164.076 25.8319 164.17 25.8565 164.269 25.8739C164.367 25.8884 164.451 25.8957 164.521 25.8957C164.608 25.8957 164.701 25.8899 164.799 25.8783C164.901 25.8638 164.992 25.8406 165.073 25.8087C165.157 25.7768 165.227 25.7348 165.282 25.6826C165.337 25.6304 165.364 25.5667 165.364 25.4913ZM167.401 25.2304C167.523 25.3087 167.665 25.387 167.827 25.4652C167.993 25.5435 168.161 25.6159 168.332 25.6826C168.506 25.7464 168.674 25.7986 168.836 25.8391C168.998 25.8797 169.139 25.9 169.258 25.9C169.325 25.9 169.416 25.8942 169.532 25.8826C169.651 25.871 169.767 25.8493 169.88 25.8174C169.996 25.7826 170.096 25.7348 170.18 25.6739C170.267 25.613 170.313 25.5333 170.319 25.4348C170.322 25.3217 170.287 25.1942 170.214 25.0522C170.145 24.9101 170.049 24.7623 169.927 24.6087C169.809 24.4522 169.669 24.2957 169.51 24.1391C169.354 23.9797 169.191 23.8275 169.023 23.6826C168.855 23.5348 168.687 23.3986 168.519 23.2739C168.351 23.1464 168.196 23.0377 168.054 22.9478L168.823 21.8043C169.104 22.0014 169.383 22.2232 169.658 22.4696C169.936 22.713 170.191 22.971 170.423 23.2435C170.658 23.5159 170.861 23.7986 171.032 24.0913C171.206 24.3812 171.33 24.6739 171.406 24.9696C171.429 25.0536 171.445 25.1391 171.454 25.2261C171.462 25.3101 171.467 25.3913 171.467 25.4696C171.467 25.7391 171.414 25.987 171.31 26.213C171.206 26.4362 171.059 26.6304 170.871 26.7957C170.685 26.958 170.462 27.0841 170.201 27.1739C169.94 27.2638 169.654 27.3087 169.34 27.3087C169.317 27.3087 169.294 27.3072 169.271 27.3043C169.248 27.3043 169.225 27.3043 169.201 27.3043C169.001 27.3043 168.796 27.2826 168.584 27.2391C168.375 27.1986 168.168 27.1435 167.962 27.0739C167.759 27.0043 167.561 26.9232 167.367 26.8304C167.175 26.7377 166.997 26.6406 166.832 26.5391L167.401 25.2304ZM175.169 27.2609C175.105 27.2609 175.021 27.2565 174.917 27.2478C174.812 27.2391 174.694 27.2072 174.56 27.1522C174.496 27.5116 174.376 27.8522 174.199 28.1739C174.025 28.4986 173.809 28.8014 173.552 29.0826C173.294 29.3667 172.999 29.6275 172.669 29.8652C172.338 30.1029 171.986 30.3159 171.612 30.5043L170.817 29.4043C171.023 29.3 171.23 29.1855 171.438 29.0609C171.647 28.9391 171.846 28.8087 172.034 28.6696C172.225 28.5333 172.402 28.3899 172.565 28.2391C172.73 28.0913 172.873 27.9377 172.995 27.7783C173.117 27.6188 173.212 27.4551 173.282 27.287C173.352 27.1217 173.386 26.9536 173.386 26.7826C173.386 26.6696 173.365 26.5261 173.321 26.3522C173.278 26.1783 173.223 25.9913 173.156 25.7913C173.089 25.5913 173.015 25.3899 172.934 25.187C172.853 24.9841 172.775 24.7986 172.699 24.6304L173.956 24.0826C174.072 24.4304 174.182 24.7203 174.286 24.9522C174.394 25.1841 174.496 25.3696 174.595 25.5087C174.694 25.6478 174.788 25.7464 174.878 25.8043C174.97 25.8594 175.062 25.887 175.152 25.887H175.256V27.2609H175.169ZM175.079 25.887H176.123C176.247 25.887 176.385 25.8812 176.536 25.8696C176.686 25.8551 176.827 25.8275 176.957 25.787C177.091 25.7464 177.201 25.687 177.288 25.6087C177.378 25.5275 177.423 25.4217 177.423 25.2913C177.423 25.2217 177.401 25.1188 177.357 24.9826C177.317 24.8435 177.262 24.6899 177.192 24.5217C177.125 24.3507 177.049 24.1725 176.962 23.987C176.878 23.8014 176.794 23.6246 176.709 23.4565L177.953 22.8391C178.034 23.0217 178.114 23.2159 178.192 23.4217C178.273 23.6275 178.346 23.8362 178.409 24.0478C178.473 24.2594 178.524 24.471 178.562 24.6826C178.602 24.8913 178.623 25.0913 178.623 25.2826C178.623 25.642 178.556 25.9478 178.423 26.2C178.292 26.4493 178.114 26.6536 177.888 26.813C177.662 26.9696 177.396 27.0826 177.092 27.1522C176.788 27.2246 176.462 27.2609 176.114 27.2609H175.079V25.887ZM176.831 28.6913L177.649 27.8739L178.492 28.713L177.657 29.5522L176.831 28.7261L176.014 29.5435L175.17 28.7043L176.005 27.8652L176.831 28.6913ZM176.053 29.9609L176.827 29.187L177.605 29.9652L176.831 30.7391L176.053 29.9609Z" fill="#4C4F53"/>
<path d="M287.333 23.9999H287.34M292 23.9999H292.007M296.667 23.9999H296.673M288 23.9999C288 24.3681 287.702 24.6666 287.333 24.6666C286.965 24.6666 286.667 24.3681 286.667 23.9999C286.667 23.6317 286.965 23.3333 287.333 23.3333C287.702 23.3333 288 23.6317 288 23.9999ZM292.667 23.9999C292.667 24.3681 292.368 24.6666 292 24.6666C291.632 24.6666 291.333 24.3681 291.333 23.9999C291.333 23.6317 291.632 23.3333 292 23.3333C292.368 23.3333 292.667 23.6317 292.667 23.9999ZM297.333 23.9999C297.333 24.3681 297.035 24.6666 296.667 24.6666C296.298 24.6666 296 24.3681 296 23.9999C296 23.6317 296.298 23.3333 296.667 23.3333C297.035 23.3333 297.333 23.6317 297.333 23.9999Z" stroke="#9A9A9A" stroke-width="2" stroke-linecap="round" stroke-linejoin="round"/>
<path d="M40.212 52.3417L36.7754 55.7821L34.6664 57.8827C33.7779 58.7723 33.7779 60.2192 34.6664 61.1088L40.212 66.6606C40.94 67.3894 42.1818 66.8643 42.1818 65.8461V59.8334V53.1562C42.1818 52.1273 40.94 51.6128 40.212 52.3417Z" fill="#D1D1D1"/>
<path d="M31.5154 57.8839L29.4064 55.7733L25.9698 52.3341C25.2419 51.6163 24 52.1306 24 53.1591V59.8338V65.8442C24 66.8728 25.2419 67.387 25.9698 66.6585L31.5154 61.1087C32.404 60.2302 32.404 58.7731 31.5154 57.8839Z" fill="#D1D1D1"/>
<path d="M28.5241 84.233V85H28.4459C28.3467 85 28.228 84.9922 28.0898 84.9765C27.9541 84.9583 27.8185 84.9178 27.6828 84.8552C27.4767 84.7587 27.3046 84.5996 27.1663 84.3778C27.002 84.4039 26.8494 84.4235 26.7085 84.4365C26.5702 84.447 26.4372 84.4522 26.3094 84.4522C25.6363 84.4522 25.168 84.2891 24.9046 83.963C24.8315 83.877 24.7794 83.783 24.748 83.6813C24.7194 83.5796 24.7037 83.4804 24.7011 83.3839V83.3135C24.7011 83.243 24.7076 83.1713 24.7207 83.0983C24.7337 83.0252 24.752 82.9613 24.7754 82.9065C24.8459 82.7604 24.9294 82.6261 25.0259 82.5035C25.125 82.3809 25.2294 82.2713 25.3389 82.1748C25.4511 82.0757 25.5659 81.9883 25.6833 81.9126C25.8033 81.8343 25.918 81.7665 26.0276 81.7091C26.1398 81.6491 26.2454 81.5996 26.3446 81.5604C26.4437 81.5187 26.5298 81.4848 26.6028 81.4587C26.582 81.2604 26.5663 81.1157 26.5559 81.0243C26.548 80.9304 26.5441 80.8822 26.5441 80.8796L27.3111 80.7191V80.7152C27.3137 80.7361 27.3189 80.7843 27.3267 80.86C27.3346 80.933 27.3437 81.0204 27.3541 81.1222C27.3646 81.2213 27.375 81.3283 27.3854 81.443C27.3985 81.5552 27.4102 81.6609 27.4207 81.76C27.4311 81.8591 27.4402 81.9452 27.448 82.0183C27.4559 82.0913 27.4611 82.137 27.4637 82.1552C27.5054 82.4917 27.5433 82.767 27.5772 82.9809C27.6111 83.1948 27.6411 83.3657 27.6672 83.4935C27.6933 83.6213 27.7141 83.7126 27.7298 83.7674C27.7454 83.8196 27.7572 83.8535 27.765 83.8691C27.8276 84.01 27.9111 84.1065 28.0154 84.1587C28.1198 84.2083 28.2633 84.233 28.4459 84.233H28.5241ZM26.6928 82.253C26.6302 82.2791 26.5559 82.3117 26.4698 82.3509C26.3837 82.3874 26.2937 82.4304 26.1998 82.48C26.1085 82.527 26.0172 82.5791 25.9259 82.6365C25.8372 82.6939 25.7563 82.7565 25.6833 82.8243C25.6128 82.8922 25.5554 82.9652 25.5111 83.0435C25.4667 83.1191 25.4446 83.1987 25.4446 83.2822C25.4446 83.3657 25.4707 83.4348 25.5228 83.4896C25.5776 83.5443 25.6467 83.5874 25.7302 83.6187C25.8163 83.6474 25.9128 83.667 26.0198 83.6774C26.1085 83.6878 26.1985 83.693 26.2898 83.693C26.308 83.693 26.3485 83.693 26.4111 83.693C26.4737 83.6904 26.5533 83.6839 26.6498 83.6735C26.7489 83.663 26.8324 83.6513 26.9002 83.6383C26.8689 83.487 26.8363 83.3017 26.8024 83.0826C26.7711 82.8635 26.7346 82.587 26.6928 82.253ZM31.8594 84.233V85H31.7812C31.5177 85 31.2986 84.9557 31.1238 84.867C30.949 84.7757 30.8055 84.6583 30.6934 84.5148C30.6099 84.5957 30.5186 84.6674 30.4194 84.73C30.3203 84.79 30.2029 84.8409 30.0673 84.8826C29.9316 84.9217 29.7725 84.9517 29.5899 84.9726C29.4099 84.9909 29.1973 85 28.952 85H28.369V84.233H28.952C29.1999 84.233 29.4112 84.2135 29.586 84.1743C29.7634 84.1352 29.9068 84.0765 30.0164 83.9983C30.1286 83.92 30.2107 83.8222 30.2629 83.7048C30.3151 83.5874 30.3412 83.4504 30.3412 83.2939C30.3412 83.1452 30.3294 82.9939 30.306 82.84C30.2851 82.6861 30.246 82.51 30.1886 82.3117L30.9242 82.1043C30.9503 82.1957 30.9725 82.2843 30.9907 82.3704C31.009 82.4539 31.0247 82.5426 31.0377 82.6365C31.0507 82.7304 31.0625 82.8322 31.0729 82.9417C31.086 83.0513 31.0977 83.1752 31.1081 83.3135C31.116 83.41 31.1303 83.5117 31.1512 83.6187C31.172 83.7257 31.206 83.8248 31.2529 83.9161C31.3025 84.0074 31.369 84.083 31.4525 84.143C31.5386 84.203 31.6481 84.233 31.7812 84.233H31.8594ZM30.0281 80.6604L29.3942 81.2943L28.7525 80.6565L29.3864 80.0187L30.0281 80.6604ZM31.6325 80.6643L30.9986 81.3022L30.3568 80.6604L30.9907 80.0265L31.6325 80.6643ZM31.7001 84.233H31.7822C31.8918 84.233 31.9975 84.2083 32.0992 84.1587C32.2035 84.1091 32.3001 84.0439 32.3888 83.963C32.4801 83.8796 32.5635 83.787 32.6392 83.6852C32.7148 83.5809 32.7814 83.4752 32.8388 83.3683C32.8988 83.2483 32.9496 83.1309 32.9914 83.0161C33.0331 82.8987 33.0683 82.7891 33.097 82.6874C33.1283 82.583 33.1531 82.4878 33.1714 82.4017C33.1896 82.3157 33.2066 82.2413 33.2222 82.1787L33.9735 82.3861C33.9579 82.4513 33.937 82.5426 33.9109 82.66C33.8875 82.7774 33.864 82.9052 33.8405 83.0435C33.8196 83.1791 33.8053 83.3174 33.7975 83.4583C33.7948 83.5104 33.7935 83.56 33.7935 83.607C33.7935 83.6904 33.8001 83.7804 33.8131 83.877C33.8288 83.9709 33.864 84.0543 33.9188 84.1274C33.9761 84.2004 34.0583 84.237 34.1653 84.237C34.2983 84.237 34.417 84.2017 34.5214 84.1313C34.6283 84.0609 34.7222 83.9683 34.8031 83.8535C34.884 83.7387 34.9531 83.607 35.0105 83.4583C35.0679 83.3096 35.1175 83.1583 35.1592 83.0043C35.2009 82.8504 35.2335 82.6991 35.257 82.5504C35.2831 82.3991 35.3027 82.2635 35.3157 82.1435L36.0788 82.2883C36.0657 82.3796 36.0488 82.4904 36.0279 82.6209C36.007 82.7513 35.9914 82.8883 35.9809 83.0317C35.9705 83.1335 35.9653 83.2352 35.9653 83.337C35.9653 83.3787 35.9666 83.4452 35.9692 83.5365C35.9744 83.6278 35.994 83.7296 36.0279 83.8417C36.0644 83.9539 36.1205 84.0452 36.1961 84.1157C36.2718 84.1861 36.3748 84.2213 36.5053 84.2213C36.6305 84.2213 36.7335 84.1848 36.8144 84.1117C36.8953 84.0361 36.9592 83.9383 37.0061 83.8183C37.0557 83.6957 37.0909 83.56 37.1118 83.4113C37.1327 83.26 37.1457 83.1087 37.1509 82.9574C37.1535 82.8817 37.1548 82.8074 37.1548 82.7343C37.1548 82.6613 37.1522 82.5739 37.147 82.4722C37.1444 82.3704 37.1405 82.2726 37.1353 82.1787L37.9022 82.1161C37.9101 82.2022 37.9179 82.2896 37.9257 82.3783C37.9361 82.4643 37.9479 82.5543 37.9609 82.6483C37.9766 82.7422 37.9948 82.8413 38.0157 82.9457C38.0392 83.05 38.0705 83.1609 38.1096 83.2783C38.214 83.5991 38.3418 83.8391 38.4931 83.9983C38.647 84.1548 38.8179 84.233 39.0057 84.233H39.0996V85H39.0057C38.8701 85 38.737 84.9817 38.6066 84.9452C38.4761 84.9061 38.3522 84.8513 38.2348 84.7809C38.1201 84.7104 38.0144 84.6257 37.9179 84.5265C37.8214 84.4274 37.7392 84.3152 37.6714 84.19C37.6192 84.3126 37.554 84.4235 37.4757 84.5226C37.3975 84.6217 37.3075 84.7065 37.2057 84.777C37.1066 84.8474 36.9983 84.9022 36.8809 84.9413C36.7635 84.9804 36.6383 85 36.5053 85C36.2444 85 36.0161 84.9335 35.8205 84.8004C35.6248 84.6648 35.4788 84.4809 35.3822 84.2487C35.3118 84.3583 35.2322 84.46 35.1435 84.5539C35.0575 84.6452 34.9622 84.7261 34.8579 84.7965C34.7561 84.8643 34.6466 84.9178 34.5292 84.957C34.4144 84.9935 34.2931 85.0117 34.1653 85.0117C34.0427 85.0117 33.924 84.9935 33.8092 84.957C33.697 84.9204 33.5953 84.8683 33.504 84.8004C33.4127 84.7326 33.3331 84.6504 33.2653 84.5539C33.1975 84.4574 33.1466 84.3504 33.1127 84.233C33.0318 84.3478 32.9457 84.4522 32.8544 84.5461C32.7631 84.64 32.6627 84.7209 32.5531 84.7887C32.4435 84.8539 32.3248 84.9061 32.197 84.9452C32.0718 84.9817 31.9335 85 31.7822 85H31.7001V84.233ZM38.9422 84.233H39.3962C39.5475 84.233 39.687 84.2304 39.8149 84.2252C39.9427 84.2174 40.0588 84.1978 40.1631 84.1665C40.2675 84.1352 40.3588 84.0896 40.437 84.0296C40.5153 83.967 40.5805 83.8809 40.6327 83.7713C40.6588 83.7165 40.6783 83.6474 40.6914 83.5639C40.6992 83.5091 40.7031 83.4504 40.7031 83.3878C40.7031 83.3539 40.7005 83.303 40.6953 83.2352C40.6901 83.1648 40.6731 83.0696 40.6444 82.9496C40.6157 82.827 40.574 82.6991 40.5192 82.5661L40.1788 81.7287L40.8753 81.3843C40.8753 81.387 40.887 81.4143 40.9105 81.4665C40.934 81.5161 40.964 81.5839 41.0005 81.67C41.0396 81.7561 41.0814 81.8565 41.1257 81.9713C41.1701 82.0835 41.2118 82.2035 41.2509 82.3313C41.3683 82.7096 41.4362 83.0435 41.4544 83.333C41.457 83.3748 41.4583 83.4165 41.4583 83.4583C41.4583 83.6957 41.4192 83.9043 41.3409 84.0843C41.2627 84.2617 41.1662 84.4091 41.0514 84.5265C40.9392 84.6439 40.8088 84.7378 40.6601 84.8083C40.5114 84.8787 40.3444 84.9283 40.1592 84.957C39.9766 84.9857 39.7783 85 39.5644 85H38.9422V84.233ZM40.844 86.4009L40.2062 87.0387L39.5644 86.397L40.2022 85.7591L40.844 86.4009Z" fill="#4C4F53"/>
<path d="M154.65 67.11V52.89C154.65 51.54 154.08 51 152.64 51H149.01C147.57 51 147 51.54 147 52.89V67.11C147 68.46 147.57 69 149.01 69H152.64C154.08 69 154.65 68.46 154.65 67.11Z" fill="#203E76"/>
<path d="M165 67.11V52.89C165 51.54 164.43 51 162.99 51H159.36C157.93 51 157.35 51.54 157.35 52.89V67.11C157.35 68.46 157.92 69 159.36 69H162.99C164.43 69 165 68.46 165 67.11Z" fill="#203E76"/>
<path d="M151.335 84.1391C151.495 84.1678 151.66 84.1913 151.832 84.2096C152.007 84.2252 152.192 84.233 152.388 84.233V85C152.218 85 152.049 84.9948 151.879 84.9843C151.71 84.9713 151.543 84.953 151.378 84.9296C151.217 84.9061 151.059 84.8774 150.905 84.8435C150.751 84.807 150.608 84.7652 150.474 84.7183L150.244 84.7965C150.113 84.8435 149.958 84.8852 149.778 84.9217C149.601 84.9583 149.406 84.9883 149.195 85.0117C148.984 85.0352 148.762 85.0535 148.53 85.0665C148.298 85.0796 148.064 85.0861 147.829 85.0861C147.026 85.0835 146.363 84.9843 145.841 84.7887C145.32 84.593 144.94 84.2943 144.703 83.8926C144.598 83.7178 144.528 83.5391 144.491 83.3565C144.46 83.2 144.444 83.0461 144.444 82.8948C144.444 82.8713 144.444 82.8126 144.444 82.7187C144.447 82.6222 144.465 82.497 144.499 82.343C144.536 82.1891 144.575 82.0548 144.617 81.94C144.658 81.8226 144.696 81.7287 144.73 81.6583C144.764 81.5852 144.784 81.5435 144.789 81.533L145.47 81.9048C145.47 81.9074 145.458 81.9335 145.434 81.983C145.411 82.03 145.384 82.0952 145.352 82.1787C145.324 82.2596 145.295 82.3535 145.266 82.4604C145.24 82.5674 145.224 82.6796 145.219 82.797C145.217 82.8283 145.215 82.8609 145.215 82.8948C145.215 82.9809 145.223 83.0774 145.239 83.1843C145.257 83.2887 145.3 83.3957 145.368 83.5052C145.446 83.6357 145.547 83.7504 145.669 83.8496C145.794 83.9487 145.947 84.0322 146.127 84.1C146.31 84.1652 146.522 84.2161 146.765 84.2526C147.01 84.2891 147.292 84.3113 147.61 84.3191C147.756 84.3243 147.892 84.327 148.017 84.327C148.101 84.327 148.208 84.3257 148.338 84.323C148.468 84.3204 148.607 84.3139 148.753 84.3035C148.899 84.2904 149.031 84.2748 149.148 84.2565C149.265 84.2383 149.375 84.2187 149.477 84.1978C149.119 83.903 148.941 83.5587 148.941 83.1648C148.941 82.9196 148.977 82.69 149.05 82.4761C149.126 82.2596 149.234 82.0613 149.375 81.8813C149.516 81.7065 149.675 81.5709 149.852 81.4743C150.032 81.3778 150.221 81.3296 150.42 81.3296C150.6 81.3296 150.767 81.3609 150.921 81.4235C151.075 81.4861 151.211 81.5839 151.331 81.717C151.378 81.7665 151.427 81.8265 151.476 81.897C151.526 81.9674 151.57 82.0509 151.609 82.1474C151.648 82.2439 151.681 82.3548 151.707 82.48C151.733 82.6052 151.746 82.7461 151.746 82.9026C151.746 83.02 151.738 83.1374 151.723 83.2548C151.707 83.3696 151.682 83.4804 151.648 83.5874C151.617 83.6943 151.575 83.7948 151.523 83.8887C151.471 83.9826 151.408 84.0661 151.335 84.1391ZM150.443 83.8809C150.555 83.8157 150.645 83.7452 150.713 83.6696C150.784 83.5939 150.837 83.5143 150.874 83.4309C150.91 83.3474 150.935 83.2613 150.948 83.1726C150.961 83.0839 150.968 82.9939 150.968 82.9026C150.968 82.7148 150.944 82.5687 150.897 82.4643C150.853 82.3574 150.801 82.2778 150.741 82.2257C150.681 82.1735 150.619 82.1409 150.557 82.1278C150.497 82.1148 150.451 82.1083 150.42 82.1083C150.347 82.1083 150.268 82.133 150.185 82.1826C150.104 82.2322 150.028 82.3026 149.958 82.3939C149.89 82.4852 149.833 82.5961 149.786 82.7265C149.741 82.857 149.719 83.003 149.719 83.1648C149.719 83.2248 149.736 83.29 149.77 83.3604C149.807 83.4309 149.856 83.5 149.919 83.5678C149.984 83.633 150.061 83.6943 150.15 83.7517C150.238 83.8065 150.336 83.8496 150.443 83.8809ZM151.073 79.7213L150.435 80.3591L149.794 79.7174L150.431 79.0796L151.073 79.7213ZM153.988 81.3726C153.951 81.3726 153.908 81.3909 153.859 81.4274C153.809 81.4613 153.76 81.5135 153.71 81.5839C153.66 81.6543 153.613 81.7404 153.569 81.8422C153.527 81.9439 153.495 82.0613 153.471 82.1943C153.463 82.2439 153.46 82.2909 153.46 82.3352C153.46 82.3926 153.467 82.4526 153.483 82.5152C153.501 82.5778 153.539 82.6352 153.596 82.6874C153.656 82.7396 153.732 82.7787 153.823 82.8048C153.917 82.8309 154.023 82.8478 154.14 82.8557C154.273 82.8609 154.399 82.8635 154.516 82.8635C154.631 82.8635 154.731 82.8609 154.817 82.8557C154.799 82.6026 154.75 82.3639 154.669 82.1396C154.59 81.9152 154.485 81.7287 154.352 81.58C154.31 81.533 154.256 81.4874 154.191 81.443C154.129 81.3961 154.061 81.3726 153.988 81.3726ZM152.235 84.233H152.313C152.6 84.233 152.865 84.22 153.107 84.1939C153.353 84.1652 153.57 84.13 153.761 84.0883C153.954 84.0439 154.117 83.9957 154.25 83.9435C154.383 83.8913 154.481 83.8391 154.543 83.787C154.577 83.7583 154.605 83.7322 154.626 83.7087C154.646 83.6852 154.667 83.6617 154.688 83.6383H154.293C154.152 83.6383 154.015 83.6278 153.882 83.607C153.749 83.5835 153.624 83.5496 153.506 83.5052C153.389 83.4609 153.282 83.4061 153.186 83.3409C153.089 83.273 153.007 83.1961 152.939 83.11C152.903 83.063 152.866 83.007 152.83 82.9417C152.793 82.8739 152.763 82.797 152.74 82.7109C152.716 82.6248 152.702 82.527 152.696 82.4174V82.3509C152.696 82.2622 152.704 82.1643 152.72 82.0574C152.793 81.6609 152.933 81.3296 153.139 81.0635C153.256 80.907 153.388 80.7909 153.534 80.7152C153.68 80.637 153.831 80.5978 153.988 80.5978C154.332 80.5978 154.645 80.7504 154.927 81.0557C155.047 81.1887 155.154 81.3439 155.248 81.5213C155.342 81.6961 155.417 81.8839 155.475 82.0848C155.535 82.283 155.575 82.4878 155.596 82.6991C155.604 82.7904 155.608 82.8804 155.608 82.9691C155.608 83.0917 155.6 83.213 155.584 83.333C155.553 83.5704 155.488 83.7765 155.389 83.9513C155.29 84.1261 155.163 84.2748 155.009 84.3974C154.858 84.52 154.683 84.6204 154.485 84.6987C154.289 84.7743 154.076 84.8343 153.847 84.8787C153.62 84.923 153.381 84.9543 153.131 84.9726C152.88 84.9883 152.626 84.9974 152.368 85H152.235V84.233ZM153.8 79.3143L153.166 79.9483L152.524 79.3104L153.158 78.6726L153.8 79.3143ZM155.404 79.3183L154.77 79.9561L154.129 79.3143L154.763 78.6804L155.404 79.3183ZM156.266 86.9917C156.667 86.9109 157.027 86.7987 157.346 86.6552C157.664 86.5117 157.937 86.35 158.163 86.17C158.39 85.99 158.569 85.7983 158.7 85.5948C158.833 85.3939 158.913 85.1957 158.942 85H158.762C158.7 85 158.611 85 158.496 85C158.384 85 158.256 84.9935 158.113 84.9804C157.547 84.9465 157.128 84.7613 156.857 84.4248C156.737 84.2735 156.661 84.0987 156.63 83.9004C156.611 83.7961 156.602 83.6917 156.602 83.5874C156.602 83.4883 156.613 83.363 156.633 83.2117C156.657 83.0578 156.709 82.8843 156.79 82.6913C156.871 82.4957 156.966 82.3274 157.076 82.1865C157.209 82.0222 157.352 81.8983 157.506 81.8148C157.663 81.7287 157.824 81.6857 157.991 81.6857C158.362 81.6857 158.702 81.8526 159.013 82.1865C159.122 82.3091 159.221 82.4474 159.31 82.6013C159.399 82.7552 159.474 82.9209 159.537 83.0983C159.6 83.273 159.649 83.457 159.686 83.65C159.722 83.8404 159.743 84.0348 159.748 84.233H160.12V85H159.69C159.611 85.3861 159.469 85.7343 159.263 86.0448C159.06 86.3578 158.812 86.6304 158.52 86.8626C158.23 87.0948 157.907 87.2852 157.549 87.4339C157.194 87.5826 156.827 87.687 156.446 87.747L156.266 86.9917ZM157.991 82.4565C157.916 82.4565 157.844 82.4865 157.776 82.5465C157.708 82.6039 157.647 82.6783 157.592 82.7696C157.54 82.8609 157.496 82.9639 157.459 83.0787C157.423 83.1909 157.398 83.3017 157.385 83.4113C157.377 83.4713 157.373 83.53 157.373 83.5874C157.373 83.6343 157.377 83.693 157.385 83.7635C157.395 83.8313 157.423 83.8926 157.467 83.9474C157.506 83.9996 157.554 84.0426 157.612 84.0765C157.672 84.1078 157.734 84.1339 157.8 84.1548C157.867 84.173 157.933 84.1874 157.995 84.1978C158.06 84.2057 158.117 84.2109 158.163 84.2135C158.294 84.2213 158.417 84.2252 158.531 84.2252C158.56 84.2252 158.615 84.2252 158.696 84.2252C158.779 84.2226 158.872 84.2174 158.973 84.2096C158.966 84.0426 158.946 83.8848 158.915 83.7361C158.883 83.5874 158.843 83.4491 158.793 83.3213C158.744 83.1935 158.688 83.0787 158.625 82.977C158.565 82.8726 158.503 82.7826 158.437 82.707C158.411 82.6809 158.381 82.6535 158.347 82.6248C158.316 82.5935 158.281 82.5661 158.242 82.5426C158.205 82.5165 158.166 82.4957 158.124 82.48C158.083 82.4643 158.038 82.4565 157.991 82.4565ZM163.451 84.233V85H163.372C163.109 85 162.89 84.9557 162.715 84.867C162.54 84.7757 162.397 84.6583 162.285 84.5148C162.201 84.5957 162.11 84.6674 162.011 84.73C161.912 84.79 161.794 84.8409 161.659 84.8826C161.523 84.9217 161.364 84.9517 161.181 84.9726C161.001 84.9909 160.789 85 160.543 85H159.96V84.233H160.543C160.791 84.233 161.002 84.2135 161.177 84.1743C161.355 84.1352 161.498 84.0765 161.608 83.9983C161.72 83.92 161.802 83.8222 161.854 83.7048C161.906 83.5874 161.932 83.4504 161.932 83.2939C161.932 83.1452 161.921 82.9939 161.897 82.84C161.876 82.6861 161.837 82.51 161.78 82.3117L162.516 82.1043C162.542 82.1957 162.564 82.2843 162.582 82.3704C162.6 82.4539 162.616 82.5426 162.629 82.6365C162.642 82.7304 162.654 82.8322 162.664 82.9417C162.677 83.0513 162.689 83.1752 162.699 83.3135C162.707 83.41 162.722 83.5117 162.742 83.6187C162.763 83.7257 162.797 83.8248 162.844 83.9161C162.894 84.0074 162.96 84.083 163.044 84.143C163.13 84.203 163.239 84.233 163.372 84.233H163.451ZM161.619 80.6604L160.986 81.2943L160.344 80.6565L160.978 80.0187L161.619 80.6604ZM163.224 80.6643L162.59 81.3022L161.948 80.6604L162.582 80.0265L163.224 80.6643ZM163.37 84.233C163.602 84.233 163.795 84.1978 163.949 84.1274C164.103 84.0543 164.233 83.9591 164.34 83.8417C164.45 83.7217 164.544 83.5861 164.622 83.4348C164.703 83.2809 164.784 83.123 164.864 82.9613C164.935 82.8152 165.009 82.6717 165.087 82.5309C165.168 82.3874 165.258 82.2609 165.357 82.1513C165.459 82.0391 165.574 81.9491 165.702 81.8813C165.832 81.8109 165.984 81.7757 166.156 81.7757C166.362 81.7757 166.543 81.8174 166.7 81.9009C166.859 81.9817 166.994 82.0887 167.107 82.2217C167.219 82.3548 167.307 82.5061 167.373 82.6757C167.44 82.8452 167.487 83.0174 167.514 83.1922C167.527 83.2809 167.533 83.3722 167.533 83.4661C167.533 83.5496 167.525 83.6591 167.51 83.7948C167.494 83.9304 167.452 84.0804 167.384 84.2448C167.317 84.4065 167.224 84.5487 167.107 84.6713C166.989 84.7913 166.846 84.8748 166.676 84.9217C166.569 84.9504 166.462 84.9648 166.355 84.9648C166.303 84.9648 166.222 84.9583 166.113 84.9452C166.006 84.9322 165.875 84.897 165.721 84.8396C165.57 84.7796 165.424 84.7078 165.283 84.6243C165.142 84.5383 165.012 84.4509 164.892 84.3622C164.79 84.5004 164.683 84.6113 164.571 84.6948C164.461 84.7783 164.344 84.8422 164.219 84.8865C164.094 84.9309 163.96 84.9609 163.82 84.9765C163.679 84.9922 163.529 85 163.37 85H163.291V84.233H163.37ZM165.342 83.7283C165.579 83.903 165.796 84.0296 165.991 84.1078C166.122 84.16 166.239 84.1861 166.344 84.1861C166.393 84.1861 166.439 84.1809 166.48 84.1704C166.525 84.16 166.568 84.13 166.61 84.0804C166.651 84.0309 166.687 83.967 166.715 83.8887C166.747 83.8104 166.769 83.7204 166.782 83.6187C166.787 83.577 166.79 83.5352 166.79 83.4935C166.79 83.4283 166.784 83.3604 166.774 83.29C166.771 83.2717 166.765 83.2404 166.754 83.1961C166.744 83.1517 166.728 83.1022 166.707 83.0474C166.689 82.9926 166.664 82.9365 166.633 82.8791C166.602 82.8191 166.564 82.7657 166.52 82.7187C166.475 82.6691 166.423 82.6287 166.363 82.5974C166.303 82.5661 166.234 82.5504 166.156 82.5504C166.104 82.5504 166.054 82.5661 166.007 82.5974C165.963 82.6261 165.917 82.6717 165.87 82.7343C165.826 82.797 165.777 82.8752 165.725 82.9691C165.676 83.063 165.618 83.1739 165.553 83.3017L165.342 83.7283Z" fill="#4C4F53"/>
<path d="M276.074 52.3417L272.714 55.7821L270.652 57.8827C269.783 58.7723 269.783 60.2192 270.652 61.1088L276.074 66.6606C276.786 67.3894 278 66.8643 278 65.8461V59.8334V53.1562C278 52.1273 276.786 51.6128 276.074 52.3417Z" fill="#D1D1D1"/>
<path d="M287.348 57.8839L285.286 55.7733L281.926 52.3341C281.214 51.6163 280 52.1306 280 53.1591V59.8338V65.8442C280 66.8727 281.214 67.387 281.926 66.6585L287.348 61.1087C288.217 60.2302 288.217 58.7731 287.348 57.8839Z" fill="#D1D1D1"/>
<path d="M276.868 82.4565C276.905 82.5791 276.941 82.7004 276.978 82.8204C277.014 82.9378 277.047 83.0565 277.075 83.1765C277.107 83.3017 277.138 83.4283 277.169 83.5561C277.203 83.6813 277.233 83.8065 277.259 83.9317C277.288 84.0543 277.312 84.1757 277.33 84.2957C277.348 84.4157 277.357 84.533 277.357 84.6478C277.357 84.8748 277.323 85.0939 277.255 85.3052C277.19 85.5191 277.098 85.7252 276.978 85.9235C276.86 86.1217 276.719 86.3109 276.555 86.4909C276.393 86.6709 276.216 86.8404 276.023 86.9996C275.832 87.1587 275.63 87.3048 275.416 87.4378C275.205 87.5735 274.99 87.6948 274.771 87.8017L274.43 87.113C274.704 86.9774 274.97 86.8196 275.229 86.6396C275.487 86.4622 275.716 86.2678 275.917 86.0565C276.121 85.8452 276.284 85.6209 276.406 85.3835C276.529 85.1461 276.59 84.9009 276.59 84.6478C276.59 84.5513 276.581 84.4496 276.563 84.3426C276.547 84.2357 276.526 84.1261 276.5 84.0139C276.474 83.9017 276.445 83.7896 276.414 83.6774C276.383 83.5652 276.353 83.4557 276.324 83.3487C276.262 83.1296 276.195 82.9104 276.125 82.6913L276.868 82.4565ZM277.119 80.8522L276.481 81.49L275.839 80.8483L276.477 80.2104L277.119 80.8522ZM280.268 85C279.981 85 279.736 84.9661 279.533 84.8983C279.332 84.8304 279.161 84.7261 279.02 84.5852C278.934 84.4991 278.868 84.4065 278.821 84.3074C278.776 84.2083 278.742 84.1104 278.719 84.0139C278.698 83.9174 278.686 83.8261 278.684 83.74C278.681 83.6513 278.68 83.5757 278.68 83.513C278.68 83.4922 278.68 83.4309 278.68 83.3291C278.682 83.2248 278.685 83.0917 278.688 82.93C278.69 82.7683 278.691 82.583 278.691 82.3743C278.691 82.1683 278.69 81.9504 278.688 81.7209C278.688 81.4965 278.685 81.263 278.68 81.0204C278.674 80.7778 278.665 80.543 278.652 80.3161C278.642 80.0891 278.628 79.8804 278.609 79.69C278.594 79.497 278.574 79.3391 278.551 79.2165L279.318 79.0757C279.341 79.2087 279.361 79.3717 279.376 79.5648C279.394 79.7578 279.409 79.9678 279.419 80.1948C279.432 80.4217 279.441 80.6591 279.447 80.907C279.454 81.1522 279.458 81.3922 279.458 81.627V83.5913C279.458 83.68 279.462 83.7635 279.47 83.8417C279.481 83.9174 279.516 83.9839 279.576 84.0413C279.636 84.1013 279.724 84.1483 279.842 84.1822C279.962 84.2161 280.104 84.233 280.268 84.233H280.347V85H280.268ZM280.192 84.233H280.646C280.797 84.233 280.937 84.2304 281.064 84.2252C281.192 84.2174 281.308 84.1978 281.413 84.1665C281.517 84.1352 281.608 84.0896 281.687 84.0296C281.765 83.967 281.83 83.8809 281.882 83.7713C281.908 83.7165 281.928 83.6474 281.941 83.5639C281.949 83.5091 281.953 83.4504 281.953 83.3878C281.953 83.3539 281.95 83.303 281.945 83.2352C281.94 83.1648 281.923 83.0696 281.894 82.9496C281.865 82.827 281.823 82.6991 281.769 82.5661L281.428 81.7287L282.125 81.3843C282.125 81.387 282.137 81.4143 282.16 81.4665C282.183 81.5161 282.213 81.5839 282.25 81.67C282.289 81.7561 282.331 81.8565 282.375 81.9713C282.42 82.0835 282.461 82.2035 282.5 82.3313C282.618 82.7096 282.686 83.0435 282.704 83.333C282.707 83.3748 282.708 83.4165 282.708 83.4583C282.708 83.6957 282.669 83.9043 282.59 84.0843C282.512 84.2617 282.416 84.4091 282.301 84.5265C282.189 84.6439 282.058 84.7378 281.91 84.8083C281.761 84.8787 281.594 84.9283 281.409 84.957C281.226 84.9857 281.028 85 280.814 85H280.192V84.233ZM282.093 86.4009L281.456 87.0387L280.814 86.397L281.452 85.7591L282.093 86.4009Z" fill="#4C4F53"/>
</svg>
