<svg width="40" height="40" viewBox="0 0 40 40" fill="none" xmlns="http://www.w3.org/2000/svg">
<path d="M28.38 0H11.62C4.34 0 0 4.34 0 11.62V28.36C0 35.66 4.34 40 11.62 40H28.36C35.64 40 39.98 35.66 39.98 28.38V11.62C40 4.34 35.66 0 28.38 0ZM23.58 26C24.16 26.58 24.16 27.54 23.58 28.12C23.28 28.42 22.9 28.56 22.52 28.56C22.14 28.56 21.76 28.42 21.46 28.12L14.4 21.06C13.82 20.48 13.82 19.52 14.4 18.94L21.46 11.88C22.04 11.3 23 11.3 23.58 11.88C24.16 12.46 24.16 13.42 23.58 14L17.58 20L23.58 26Z" fill="#203E76"/>
</svg>
