<svg width="48" height="49" viewBox="0 0 48 49" fill="none" xmlns="http://www.w3.org/2000/svg">
<path d="M24 14.55C27.3 14.55 27.75 14.55 29.1 14.55C30.3 14.55 30.9 14.85 31.35 15C31.95 15.3 32.4 15.45 32.85 15.9C33.3 16.35 33.6 16.8 33.75 17.4C33.9 17.85 34.05 18.45 34.2 19.65C34.2 21 34.2 21.3 34.2 24.75C34.2 28.2 34.2 28.5 34.2 29.85C34.2 31.05 33.9 31.65 33.75 32.1C33.45 32.7 33.3 33.15 32.85 33.6C32.4 34.05 31.95 34.35 31.35 34.5C30.9 34.65 30.3 34.8 29.1 34.95C27.75 34.95 27.45 34.95 24 34.95C20.55 34.95 20.25 34.95 18.9 34.95C17.7 34.95 17.1 34.65 16.65 34.5C16.05 34.2 15.6 34.05 15.15 33.6C14.7 33.15 14.4 32.7 14.25 32.1C14.1 31.65 13.95 31.05 13.8 29.85C13.8 28.5 13.8 28.2 13.8 24.75C13.8 21.3 13.8 21 13.8 19.65C13.8 18.45 14.1 17.85 14.25 17.4C14.55 16.8 14.7 16.35 15.15 15.9C15.6 15.45 16.05 15.15 16.65 15C17.1 14.85 17.7 14.7 18.9 14.55C20.25 14.55 20.7 14.55 24 14.55ZM24 12.3C20.55 12.3 20.25 12.3 18.9 12.3C17.55 12.3 16.65 12.6 15.9 12.9C15.15 13.2 14.4 13.65 13.65 14.4C12.9 15.15 12.6 15.75 12.15 16.65C11.85 17.4 11.7 18.3 11.55 19.65C11.55 21 11.55 21.45 11.55 24.75C11.55 28.2 11.55 28.5 11.55 29.85C11.55 31.2 11.85 32.1 12.15 32.85C12.45 33.6 12.9 34.35 13.65 35.1C14.4 35.85 15 36.15 15.9 36.6C16.65 36.9 17.55 37.05 18.9 37.2C20.25 37.2 20.7 37.2 24 37.2C27.3 37.2 27.75 37.2 29.1 37.2C30.45 37.2 31.35 36.9 32.1 36.6C32.85 36.3 33.6 35.85 34.35 35.1C35.1 34.35 35.4 33.75 35.85 32.85C36.15 32.1 36.3 31.2 36.45 29.85C36.45 28.5 36.45 28.05 36.45 24.75C36.45 21.45 36.45 21 36.45 19.65C36.45 18.3 36.15 17.4 35.85 16.65C35.55 15.9 35.1 15.15 34.35 14.4C33.6 13.65 33 13.35 32.1 12.9C31.35 12.6 30.45 12.45 29.1 12.3C27.75 12.3 27.45 12.3 24 12.3Z" fill="white"/>
<path d="M24 18.3C20.4 18.3 17.55 21.15 17.55 24.75C17.55 28.35 20.4 31.2 24 31.2C27.6 31.2 30.45 28.35 30.45 24.75C30.45 21.15 27.6 18.3 24 18.3ZM24 28.95C21.75 28.95 19.8 27.15 19.8 24.75C19.8 22.5 21.6 20.55 24 20.55C26.25 20.55 28.2 22.35 28.2 24.75C28.2 27 26.25 28.95 24 28.95Z" fill="white"/>
<path d="M30.6 19.65C31.4284 19.65 32.1 18.9784 32.1 18.15C32.1 17.3216 31.4284 16.65 30.6 16.65C29.7716 16.65 29.1 17.3216 29.1 18.15C29.1 18.9784 29.7716 19.65 30.6 19.65Z" fill="white"/>
</svg>
