<svg width="312" height="98" viewBox="0 0 312 98" fill="none" xmlns="http://www.w3.org/2000/svg">
<rect width="312" height="98" rx="10" fill="white" fill-opacity="0.5"/>
<path d="M24.4133 29.8733C24.1866 29.9533 23.8133 29.9533 23.5866 29.8733C21.6533 29.2133 17.3333 26.46 17.3333 21.7933C17.3333 19.7333 18.9933 18.0667 21.04 18.0667C22.2533 18.0667 23.3266 18.6533 24 19.56C24.6733 18.6533 25.7533 18.0667 26.96 18.0667C29.0066 18.0667 30.6666 19.7333 30.6666 21.7933C30.6666 26.46 26.3466 29.2133 24.4133 29.8733Z" stroke="#D1D1D1" stroke-width="1.5" stroke-linecap="round" stroke-linejoin="round"/>
<path d="M136.565 25.7217C136.443 25.9478 136.342 26.1928 136.26 26.4565C136.182 26.7203 136.15 26.9884 136.165 27.2609C136.176 27.4609 136.231 27.6493 136.33 27.8261C136.429 28.0058 136.555 28.1623 136.708 28.2957C136.862 28.4319 137.036 28.5391 137.23 28.6174C137.427 28.6986 137.629 28.7391 137.834 28.7391C137.959 28.7391 138.092 28.7246 138.234 28.6957C138.376 28.6696 138.518 28.6275 138.66 28.5696C138.802 28.5116 138.939 28.4377 139.069 28.3478C139.2 28.2609 139.316 28.1536 139.417 28.0261C139.518 27.9014 139.598 27.758 139.656 27.5957C139.717 27.4333 139.747 27.2507 139.747 27.0478C139.747 26.8188 139.74 26.5493 139.726 26.2391C139.714 25.9261 139.698 25.5942 139.678 25.2435C139.66 24.8899 139.639 24.5261 139.613 24.1522C139.587 23.7783 139.56 23.413 139.534 23.0565C139.502 22.6304 139.469 22.2043 139.434 21.7783C139.402 21.3493 139.366 20.9029 139.326 20.4391L140.713 20.1174C140.733 20.613 140.752 21.0884 140.769 21.5435C140.789 21.9986 140.807 22.4507 140.821 22.9C140.836 23.2797 140.849 23.6667 140.86 24.0609C140.875 24.4551 140.888 24.8377 140.9 25.2087C140.911 25.3014 140.933 25.3884 140.965 25.4696C141 25.5507 141.045 25.6232 141.1 25.687C141.158 25.7478 141.226 25.7971 141.304 25.8348C141.382 25.8696 141.474 25.887 141.578 25.887H141.665V27.2609H141.578C141.468 27.2609 141.359 27.2565 141.252 27.2478C141.145 27.242 141.037 27.2174 140.93 27.1739C140.921 27.542 140.868 27.8696 140.769 28.1565C140.674 28.4435 140.546 28.6957 140.387 28.913C140.23 29.1333 140.049 29.3188 139.843 29.4696C139.64 29.6232 139.426 29.7464 139.2 29.8391C138.976 29.9348 138.749 30.0043 138.517 30.0478C138.288 30.0913 138.069 30.113 137.86 30.113C137.62 30.113 137.381 30.0841 137.143 30.0261C136.905 29.9681 136.679 29.8841 136.465 29.7739C136.25 29.6638 136.052 29.529 135.869 29.3696C135.687 29.2101 135.529 29.0275 135.395 28.8217C135.265 28.6188 135.162 28.3942 135.087 28.1478C135.014 27.9014 134.981 27.6377 134.987 27.3565C134.989 27.1739 135 26.9899 135.017 26.8043C135.037 26.6188 135.066 26.4348 135.104 26.2522C135.142 26.0696 135.191 25.8899 135.252 25.713C135.313 25.5362 135.388 25.3652 135.478 25.2L136.565 25.7217ZM141.49 25.887H142.534C142.658 25.887 142.796 25.8812 142.947 25.8696C143.097 25.8551 143.238 25.8275 143.368 25.787C143.502 25.7464 143.612 25.687 143.699 25.6087C143.789 25.5275 143.834 25.4217 143.834 25.2913C143.834 25.2217 143.812 25.1188 143.768 24.9826C143.728 24.8435 143.673 24.6899 143.603 24.5217C143.537 24.3507 143.46 24.1725 143.373 23.987C143.289 23.8014 143.205 23.6246 143.121 23.4565L144.364 22.8391C144.445 23.0217 144.525 23.2159 144.603 23.4217C144.684 23.6275 144.757 23.8362 144.821 24.0478C144.884 24.2594 144.935 24.471 144.973 24.6826C145.013 24.8913 145.034 25.0913 145.034 25.2826C145.034 25.642 144.967 25.9478 144.834 26.2C144.703 26.4493 144.525 26.6536 144.299 26.813C144.073 26.9696 143.808 27.0826 143.503 27.1522C143.199 27.2246 142.873 27.2609 142.525 27.2609H141.49V25.887ZM143.242 28.6913L144.06 27.8739L144.903 28.713L144.068 29.5522L143.242 28.7261L142.425 29.5435L141.581 28.7043L142.416 27.8652L143.242 28.6913ZM142.464 29.9609L143.238 29.187L144.016 29.9652L143.242 30.7391L142.464 29.9609ZM150.723 24.0739C150.784 24.2536 150.848 24.4507 150.914 24.6652C150.984 24.8768 151.046 25.0942 151.101 25.3174C151.159 25.5406 151.207 25.7638 151.245 25.987C151.283 26.2072 151.301 26.4145 151.301 26.6087C151.301 26.8812 151.264 27.1464 151.188 27.4043C151.116 27.6652 151.012 27.9174 150.875 28.1609C150.742 28.4043 150.583 28.6377 150.397 28.8609C150.212 29.0841 150.006 29.2942 149.78 29.4913C149.554 29.6913 149.312 29.8754 149.054 30.0435C148.796 30.2145 148.529 30.3681 148.254 30.5043L147.462 29.4043C147.671 29.3 147.883 29.1812 148.097 29.0478C148.309 28.9174 148.512 28.7768 148.706 28.6261C148.903 28.4754 149.085 28.3174 149.254 28.1522C149.425 27.987 149.572 27.8188 149.697 27.6478C149.825 27.4768 149.925 27.3029 149.997 27.1261C150.07 26.9522 150.106 26.7812 150.106 26.613C150.106 26.4913 150.088 26.3594 150.054 26.2174C150.022 26.0754 149.977 25.9232 149.919 25.7609C149.861 25.5957 149.793 25.4217 149.714 25.2391C149.639 25.0536 149.556 24.8565 149.467 24.6478L150.723 24.0739ZM154.158 27.2609C153.795 27.2609 153.488 27.2116 153.236 27.113C152.984 27.0174 152.778 26.8841 152.619 26.713C152.459 26.542 152.343 26.3406 152.271 26.1087C152.201 25.8739 152.166 25.6203 152.166 25.3478C152.166 25.2087 152.169 25.0362 152.175 24.8304C152.181 24.6217 152.184 24.3812 152.184 24.1087C152.184 23.8362 152.182 23.5377 152.179 23.213C152.177 22.8855 152.168 22.558 152.153 22.2304C152.142 21.9029 152.123 21.5884 152.097 21.287C152.074 20.9855 152.04 20.7232 151.997 20.5L153.297 20.1043C153.335 20.2957 153.365 20.5217 153.388 20.7826C153.414 21.0406 153.435 21.3116 153.449 21.5957C153.464 21.8797 153.474 22.1652 153.479 22.4522C153.488 22.7391 153.494 23.0058 153.497 23.2522C153.5 23.4696 153.495 23.6986 153.484 23.9391C153.475 24.1768 153.468 24.4058 153.462 24.6261C153.456 24.8435 153.458 25.0406 153.466 25.2174C153.478 25.3942 153.506 25.529 153.549 25.6217C153.575 25.6884 153.607 25.7391 153.645 25.7739C153.685 25.8087 153.732 25.8348 153.784 25.8522C153.836 25.8696 153.893 25.8797 153.953 25.8826C154.017 25.8855 154.087 25.887 154.162 25.887H154.279V27.2609H154.158ZM154.107 25.887H154.416C154.425 25.6957 154.454 25.4884 154.503 25.2652C154.555 25.0391 154.625 24.813 154.712 24.587C154.799 24.358 154.902 24.1377 155.02 23.9261C155.139 23.7116 155.27 23.5203 155.412 23.3522C155.557 23.1841 155.713 23.0478 155.881 22.9435C156.049 22.8362 156.225 22.7768 156.407 22.7652C156.602 22.7681 156.781 22.8232 156.947 22.9304C157.112 23.0348 157.252 23.1725 157.368 23.3435C157.487 23.5145 157.58 23.7087 157.647 23.9261C157.713 24.1435 157.747 24.3638 157.747 24.587C157.747 24.8507 157.69 25.1072 157.577 25.3565C157.464 25.6058 157.316 25.8391 157.133 26.0565C156.951 26.271 156.742 26.4652 156.507 26.6391C156.275 26.8101 156.038 26.9507 155.794 27.0609C155.815 27.1304 155.857 27.213 155.92 27.3087C155.987 27.4072 156.061 27.5058 156.142 27.6043C156.226 27.7029 156.31 27.7957 156.394 27.8826C156.478 27.9696 156.549 28.0391 156.607 28.0913C156.604 27.9232 156.629 27.7507 156.681 27.5739C156.733 27.4 156.806 27.2319 156.899 27.0696C156.994 26.9072 157.106 26.7551 157.233 26.613C157.361 26.4681 157.497 26.342 157.642 26.2348C157.79 26.1275 157.942 26.0435 158.099 25.9826C158.255 25.9188 158.41 25.887 158.564 25.887H158.781V27.2609H158.547C158.419 27.2609 158.296 27.2942 158.177 27.3609C158.058 27.4275 157.952 27.513 157.86 27.6174C157.77 27.7246 157.697 27.8449 157.642 27.9783C157.587 28.1116 157.56 28.2435 157.56 28.3739C157.56 28.4319 157.564 28.4855 157.573 28.5348C157.581 28.587 157.597 28.6391 157.62 28.6913C157.644 28.7435 157.674 28.7986 157.712 28.8565C157.752 28.9145 157.803 28.9768 157.864 29.0435L157.068 30.013C156.72 29.8014 156.415 29.5855 156.151 29.3652C155.887 29.1449 155.658 28.9188 155.464 28.687C155.273 28.458 155.11 28.2246 154.977 27.987C154.847 27.7493 154.739 27.5072 154.655 27.2609H154.107V25.887ZM156.668 24.7783C156.674 24.6971 156.673 24.6116 156.664 24.5217C156.658 24.429 156.644 24.3406 156.62 24.2565C156.6 24.1696 156.571 24.0913 156.533 24.0217C156.496 23.9522 156.449 23.9 156.394 23.8652C156.339 23.8942 156.278 23.9507 156.212 24.0348C156.148 24.1159 156.083 24.2145 156.016 24.3304C155.949 24.4435 155.884 24.5696 155.82 24.7087C155.76 24.8449 155.704 24.9841 155.655 25.1261C155.606 25.2681 155.565 25.4072 155.533 25.5435C155.504 25.6768 155.489 25.7971 155.486 25.9043C155.61 25.8812 155.739 25.8348 155.873 25.7652C156.009 25.6928 156.133 25.6058 156.247 25.5043C156.362 25.4 156.46 25.2855 156.538 25.1609C156.616 25.0362 156.66 24.9087 156.668 24.7783ZM158.609 25.887H159.527C159.996 25.887 160.427 25.8594 160.818 25.8043C161.212 25.7464 161.58 25.6696 161.922 25.5739C162.264 25.4783 162.588 25.3681 162.892 25.2435C163.199 25.1159 163.501 24.9841 163.796 24.8478C163.599 24.7928 163.401 24.7246 163.201 24.6435C163.004 24.5623 162.805 24.4841 162.605 24.4087C162.408 24.3333 162.211 24.2696 162.014 24.2174C161.817 24.1623 161.621 24.1348 161.427 24.1348C161.293 24.1348 161.162 24.171 161.031 24.2435C160.904 24.3159 160.788 24.3986 160.683 24.4913C160.579 24.5841 160.492 24.6754 160.422 24.7652C160.353 24.8522 160.309 24.9116 160.292 24.9435L159.288 24.2957C159.398 24.1014 159.528 23.9116 159.679 23.7261C159.83 23.5406 159.995 23.3768 160.175 23.2348C160.357 23.0899 160.553 22.9739 160.762 22.887C160.973 22.8 161.195 22.7565 161.427 22.7565C161.598 22.7565 161.769 22.7754 161.94 22.813C162.111 22.8478 162.28 22.8942 162.448 22.9522C162.619 23.0101 162.788 23.0768 162.953 23.1522C163.118 23.2246 163.282 23.2986 163.444 23.3739C163.598 23.4464 163.753 23.5188 163.909 23.5913C164.066 23.6609 164.227 23.7261 164.392 23.787C164.557 23.8449 164.728 23.8928 164.905 23.9304C165.082 23.9681 165.269 23.9884 165.466 23.9913L165.357 25.3261L164.74 25.6217C164.488 25.7435 164.237 25.8696 163.988 26C163.738 26.1275 163.485 26.2522 163.227 26.3739C162.969 26.4928 162.702 26.6072 162.427 26.7174C162.151 26.8246 161.863 26.9188 161.562 27C161.26 27.0783 160.941 27.1406 160.605 27.187C160.269 27.2362 159.909 27.2609 159.527 27.2609H158.609V25.887ZM162.205 28.6913L163.022 27.8739L163.866 28.713L163.031 29.5522L162.205 28.7261L161.388 29.5435L160.544 28.7043L161.379 27.8652L162.205 28.6913ZM161.427 29.9609L162.201 29.187L162.979 29.9652L162.205 30.7391L161.427 29.9609ZM170.95 27.2609C170.57 27.2609 170.197 27.1884 169.832 27.0435C169.47 26.8986 169.134 26.6652 168.824 26.3435L169.611 25.2348C169.753 25.3652 169.89 25.4725 170.024 25.5565C170.157 25.6377 170.284 25.7014 170.406 25.7478C170.528 25.7942 170.642 25.8261 170.75 25.8435C170.86 25.8609 170.963 25.8696 171.058 25.8696C171.137 25.8696 171.221 25.8652 171.311 25.8565C171.4 25.8449 171.489 25.8275 171.576 25.8043C171.666 25.7812 171.75 25.7522 171.828 25.7174C171.906 25.6826 171.974 25.6391 172.032 25.587C171.922 25.3203 171.802 25.0435 171.671 24.7565C171.544 24.4667 171.415 24.1768 171.284 23.887C171.154 23.5942 171.025 23.3043 170.897 23.0174C170.77 22.7304 170.651 22.4551 170.541 22.1913L171.811 21.6609L173.245 25.1261C173.297 25.2536 173.345 25.3652 173.389 25.4609C173.432 25.5565 173.483 25.6362 173.541 25.7C173.602 25.7638 173.673 25.8116 173.754 25.8435C173.838 25.8725 173.945 25.887 174.076 25.887H174.202V27.2609H174.076C173.899 27.2609 173.742 27.2493 173.606 27.2261C173.473 27.2029 173.353 27.1696 173.245 27.1261C173.141 27.0855 173.047 27.0362 172.963 26.9783C172.882 26.9174 172.805 26.8507 172.732 26.7783C172.599 26.8681 172.466 26.9435 172.332 27.0043C172.199 27.0681 172.06 27.1188 171.915 27.1565C171.77 27.1942 171.618 27.2203 171.458 27.2348C171.302 27.2522 171.132 27.2609 170.95 27.2609ZM177.908 25.887V27.2609H177.808C177.668 27.2609 177.531 27.2493 177.394 27.2261C177.261 27.2029 177.135 27.1696 177.016 27.1261C176.897 27.0855 176.787 27.0362 176.686 26.9783C176.587 26.9203 176.502 26.858 176.429 26.7913C176.293 26.8957 176.137 26.9783 175.96 27.0391C175.786 27.1 175.6 27.1464 175.403 27.1783C175.209 27.213 175.008 27.2348 174.799 27.2435C174.593 27.2551 174.39 27.2609 174.19 27.2609H174.029V25.887H174.19C174.399 25.887 174.584 25.8812 174.747 25.8696C174.912 25.858 175.055 25.8377 175.177 25.8087C175.302 25.7797 175.406 25.742 175.49 25.6957C175.574 25.6464 175.642 25.5855 175.694 25.513C175.761 25.4203 175.802 25.3174 175.816 25.2043C175.834 25.0913 175.835 24.9754 175.821 24.8565C175.809 24.7348 175.787 24.6145 175.755 24.4957C175.723 24.3739 175.694 24.258 175.668 24.1478L176.934 23.787C176.968 23.9174 176.997 24.0362 177.021 24.1435C177.047 24.2507 177.068 24.3551 177.086 24.4565C177.106 24.558 177.123 24.6609 177.138 24.7652C177.152 24.8696 177.168 24.9826 177.186 25.1043C177.197 25.1826 177.212 25.2681 177.229 25.3609C177.25 25.4507 177.281 25.5348 177.325 25.613C177.368 25.6913 177.428 25.7565 177.503 25.8087C177.581 25.8609 177.683 25.887 177.808 25.887H177.908ZM175.725 28.5348L174.908 29.3522L174.064 28.513L174.899 27.6739L175.725 28.5L176.542 27.6826L177.386 28.5217L176.551 29.3609L175.725 28.5348ZM177.73 25.887H178.013C178.143 25.887 178.254 25.8667 178.343 25.8261C178.436 25.7826 178.512 25.7232 178.57 25.6478C178.63 25.5696 178.674 25.4783 178.7 25.3739C178.729 25.2696 178.743 25.1551 178.743 25.0304C178.746 24.8594 178.748 24.6522 178.748 24.4087C178.748 24.1623 178.746 23.8986 178.743 23.6174C178.741 23.3333 178.736 23.0406 178.73 22.7391C178.725 22.4348 178.717 22.1391 178.709 21.8522C178.7 21.5623 178.691 21.2884 178.683 21.0304C178.674 20.7696 178.665 20.542 178.657 20.3478L180.039 20.0957L180.087 25.3087C180.087 25.4884 180.132 25.6304 180.222 25.7348C180.314 25.8362 180.451 25.887 180.63 25.887H180.726V27.2609H180.63C180.512 27.2638 180.391 27.2536 180.27 27.2304C180.151 27.2072 180.038 27.1739 179.93 27.1304C179.823 27.0899 179.728 27.0406 179.643 26.9826C179.559 26.9246 179.494 26.8623 179.448 26.7957C179.387 26.871 179.316 26.9377 179.235 26.9957C179.154 27.0536 179.055 27.1014 178.939 27.1391C178.826 27.1797 178.693 27.2101 178.539 27.2304C178.385 27.2507 178.207 27.2609 178.004 27.2609H177.73V25.887ZM180.553 25.887H180.966C181.134 25.887 181.306 25.8855 181.483 25.8826C181.66 25.8797 181.83 25.8681 181.992 25.8478C182.154 25.8246 182.302 25.7899 182.435 25.7435C182.572 25.6971 182.682 25.6304 182.766 25.5435C182.853 25.4565 182.909 25.3449 182.935 25.2087C182.961 25.0725 182.945 24.9043 182.887 24.7043C182.867 24.6319 182.824 24.5449 182.757 24.4435C182.69 24.3391 182.606 24.2261 182.505 24.1043C182.406 23.9797 182.292 23.8493 182.161 23.713C182.031 23.5768 181.892 23.4377 181.744 23.2957C181.596 23.1507 181.441 23.0072 181.279 22.8652C181.116 22.7203 180.954 22.5812 180.792 22.4478L180.927 21.2652L184.579 19.6391L185.105 20.8043L182.218 22.1435C182.36 22.242 182.506 22.3594 182.657 22.4957C182.808 22.6319 182.954 22.7812 183.096 22.9435C183.238 23.1029 183.372 23.2725 183.496 23.4522C183.621 23.6319 183.73 23.8159 183.822 24.0043C183.915 24.1928 183.987 24.3826 184.04 24.5739C184.095 24.7652 184.121 24.9522 184.118 25.1348C184.115 25.4362 184.058 25.7174 183.948 25.9783C183.838 26.2362 183.686 26.4609 183.492 26.6522C183.298 26.8406 183.066 26.9884 182.796 27.0957C182.53 27.2058 182.235 27.2609 181.914 27.2609H180.553V25.887Z" fill="#4C4F53"/>
<path d="M287.333 23.9999H287.34M292 23.9999H292.007M296.667 23.9999H296.673M288 23.9999C288 24.3681 287.702 24.6666 287.333 24.6666C286.965 24.6666 286.667 24.3681 286.667 23.9999C286.667 23.6317 286.965 23.3333 287.333 23.3333C287.702 23.3333 288 23.6317 288 23.9999ZM292.667 23.9999C292.667 24.3681 292.368 24.6666 292 24.6666C291.632 24.6666 291.333 24.3681 291.333 23.9999C291.333 23.6317 291.632 23.3333 292 23.3333C292.368 23.3333 292.667 23.6317 292.667 23.9999ZM297.333 23.9999C297.333 24.3681 297.035 24.6666 296.667 24.6666C296.298 24.6666 296 24.3681 296 23.9999C296 23.6317 296.298 23.3333 296.667 23.3333C297.035 23.3333 297.333 23.6317 297.333 23.9999Z" stroke="#9A9A9A" stroke-width="2" stroke-linecap="round" stroke-linejoin="round"/>
<circle cx="48" cy="60" r="12" fill="#D1D1D1"/>
<circle cx="48" cy="60" r="3" fill="#F1F1F1"/>
<path d="M40.8468 82.4565C40.7711 82.4565 40.6994 82.4865 40.6316 82.5465C40.5637 82.6039 40.5024 82.6783 40.4477 82.7696C40.3955 82.8609 40.3511 82.9639 40.3146 83.0787C40.2781 83.1909 40.2533 83.3017 40.2403 83.4113C40.2324 83.4713 40.2285 83.53 40.2285 83.5874C40.2285 83.6343 40.2324 83.693 40.2403 83.7635C40.2507 83.8313 40.2781 83.8926 40.3224 83.9474C40.3616 83.9996 40.4098 84.0426 40.4672 84.0765C40.5272 84.1078 40.5898 84.1339 40.655 84.1548C40.7229 84.173 40.7881 84.1874 40.8507 84.1978C40.9159 84.2057 40.972 84.2109 41.019 84.2135C41.1494 84.2213 41.272 84.2252 41.3868 84.2252C41.4155 84.2252 41.4703 84.2252 41.5511 84.2252C41.6346 84.2226 41.7272 84.2174 41.829 84.2096C41.8211 84.0426 41.8016 83.8848 41.7703 83.7361C41.739 83.5874 41.6985 83.4491 41.649 83.3213C41.5994 83.1935 41.5433 83.0787 41.4807 82.977C41.4207 82.8726 41.3581 82.7826 41.2929 82.707C41.2668 82.6809 41.2368 82.6535 41.2029 82.6248C41.1716 82.5935 41.1363 82.5661 41.0972 82.5426C41.0607 82.5165 41.0216 82.4957 40.9798 82.48C40.9381 82.4643 40.8937 82.4565 40.8468 82.4565ZM39.1211 86.9917C39.5229 86.9109 39.8829 86.7987 40.2011 86.6552C40.5194 86.5117 40.792 86.35 41.019 86.17C41.2459 85.99 41.4246 85.7983 41.555 85.5948C41.6881 85.3939 41.769 85.1957 41.7977 85H41.6177C41.555 85 41.4663 85 41.3516 85C41.2394 85 41.1116 84.9935 40.9681 84.9804C40.402 84.9465 39.9833 84.7613 39.712 84.4248C39.592 84.2735 39.5163 84.0987 39.485 83.9004C39.4668 83.7961 39.4577 83.6917 39.4577 83.5874C39.4577 83.4883 39.4681 83.363 39.489 83.2117C39.5124 83.0578 39.5646 82.8843 39.6455 82.6913C39.7263 82.4957 39.8216 82.3274 39.9311 82.1865C40.0642 82.0222 40.2077 81.8983 40.3616 81.8148C40.5181 81.7287 40.6798 81.6857 40.8468 81.6857C41.2172 81.6857 41.5577 81.8526 41.8681 82.1865C42.0011 82.3326 42.1172 82.5022 42.2163 82.6952C42.3181 82.8857 42.4003 83.0904 42.4629 83.3096C42.5255 83.5287 42.5685 83.757 42.592 83.9943C42.6024 84.1065 42.6077 84.2187 42.6077 84.3309C42.6077 84.4561 42.6011 84.5813 42.5881 84.7065C42.5594 84.9935 42.4955 85.2609 42.3963 85.5087C42.2972 85.7591 42.1707 85.99 42.0168 86.2013C41.8629 86.4126 41.6842 86.6043 41.4807 86.7765C41.2798 86.9487 41.062 87.0987 40.8272 87.2265C40.595 87.357 40.3498 87.4652 40.0916 87.5513C39.8333 87.64 39.5698 87.7052 39.3011 87.747L39.1211 86.9917ZM45.4842 84.73C45.4842 85.0717 45.4112 85.3978 45.2651 85.7083C45.119 86.0187 44.9247 86.307 44.6821 86.573C44.4421 86.8417 44.1668 87.087 43.8564 87.3087C43.546 87.5304 43.2264 87.7235 42.8977 87.8878L42.5612 87.1952C42.749 87.0987 42.9355 86.9917 43.1207 86.8743C43.306 86.7596 43.4807 86.6357 43.6451 86.5026C43.8094 86.3696 43.9607 86.2287 44.099 86.08C44.2373 85.9339 44.3534 85.78 44.4473 85.6183C44.5438 85.4565 44.6155 85.2883 44.6625 85.1135C44.6964 84.9883 44.7134 84.8604 44.7134 84.73C44.7134 84.6778 44.7107 84.6296 44.7055 84.5852C44.6873 84.4365 44.6586 84.2774 44.6194 84.1078C44.5829 83.9357 44.5425 83.7674 44.4981 83.603C44.4538 83.4387 44.4094 83.2848 44.3651 83.1413C44.3207 82.9952 44.2829 82.8739 44.2516 82.7774L44.9873 82.5504C45.0864 82.853 45.1829 83.1113 45.2768 83.3252C45.3707 83.5365 45.4673 83.71 45.5664 83.8457C45.6655 83.9787 45.7686 84.0765 45.8755 84.1391C45.9851 84.2017 46.1051 84.233 46.2355 84.233H46.2981V85H46.2316C46.1951 85 46.1481 84.9987 46.0907 84.9961C46.0334 84.9935 45.9694 84.983 45.899 84.9648C45.8312 84.9465 45.7607 84.9178 45.6877 84.8787C45.6173 84.8396 45.5494 84.7848 45.4842 84.7143V84.73ZM46.1507 84.233H46.2564C46.4129 84.233 46.5499 84.2317 46.6673 84.2291C46.7873 84.2265 46.8955 84.2226 46.992 84.2174C47.0886 84.2122 47.176 84.2057 47.2542 84.1978C47.3351 84.19 47.4134 84.1809 47.489 84.1704C47.2934 83.9591 47.146 83.7517 47.0468 83.5483C46.9503 83.3422 46.902 83.1439 46.902 82.9535C46.902 82.823 46.919 82.6861 46.9529 82.5426C46.9894 82.3965 47.0442 82.257 47.1173 82.1239C47.1929 81.9883 47.2868 81.863 47.399 81.7483C47.5112 81.6309 47.6455 81.5343 47.802 81.4587L47.4929 81.3374L47.8647 80.633L49.2264 81.1926C49.469 81.2996 49.7025 81.4065 49.9268 81.5135C50.1538 81.6204 50.3625 81.7274 50.5529 81.8343C50.746 81.9413 50.9155 82.0496 51.0616 82.1591C51.2077 82.2687 51.3212 82.3783 51.402 82.4878C51.642 82.8217 51.762 83.1609 51.762 83.5052C51.762 83.7635 51.6942 84.0035 51.5586 84.2252C51.4255 84.4443 51.2207 84.6283 50.9442 84.777L50.9481 84.773C50.8751 84.8174 50.789 84.8552 50.6899 84.8865C50.5907 84.9152 50.4864 84.94 50.3768 84.9609C50.2699 84.9791 50.1616 84.9922 50.052 85C49.9425 85.0078 49.842 85.0117 49.7507 85.0117C49.5212 85.0117 49.2981 84.9948 49.0816 84.9609C48.8677 84.927 48.6499 84.8657 48.4281 84.777C48.2899 84.8187 48.1334 84.8539 47.9586 84.8826C47.7864 84.9113 47.6051 84.9348 47.4147 84.953C47.2242 84.9687 47.0299 84.9804 46.8316 84.9883C46.6334 84.9961 46.4416 85 46.2564 85H46.1507V84.233ZM49.9699 82.7657C49.9699 82.8752 49.9542 82.9939 49.9229 83.1217C49.8916 83.2496 49.8473 83.3787 49.7899 83.5091C49.7351 83.637 49.6673 83.7635 49.5864 83.8887C49.5055 84.0139 49.4155 84.1287 49.3164 84.233C49.3999 84.2461 49.469 84.2539 49.5238 84.2565C49.5786 84.2591 49.6294 84.2604 49.6764 84.2604C49.9216 84.2604 50.1303 84.2396 50.3025 84.1978C50.4747 84.1535 50.6142 84.0948 50.7212 84.0217C50.8307 83.9487 50.909 83.8639 50.956 83.7674C51.0055 83.6683 51.0303 83.5652 51.0303 83.4583C51.0303 83.367 51.0068 83.2678 50.9599 83.1609C50.9129 83.0539 50.8425 82.947 50.7486 82.84C50.6573 82.7304 50.5425 82.6235 50.4042 82.5191C50.266 82.4148 50.1042 82.3196 49.919 82.2335C49.9477 82.3326 49.9634 82.4265 49.966 82.5152C49.9686 82.6039 49.9699 82.6874 49.9699 82.7657ZM49.1677 82.7343C49.1677 82.6561 49.1612 82.5739 49.1481 82.4878C49.1377 82.3991 49.1129 82.3157 49.0738 82.2374C49.0373 82.1565 48.9838 82.0861 48.9134 82.0261C48.8455 81.9635 48.7555 81.9204 48.6434 81.897C48.5938 81.8865 48.5455 81.8813 48.4986 81.8813C48.4099 81.8813 48.316 81.9048 48.2168 81.9517C48.1177 81.9987 48.0238 82.073 47.9351 82.1748C47.849 82.2765 47.7812 82.3913 47.7316 82.5191C47.682 82.647 47.6573 82.7696 47.6573 82.887C47.6573 82.9965 47.6768 83.1009 47.716 83.2C47.7551 83.2991 47.8073 83.393 47.8725 83.4817C47.9403 83.5678 48.0186 83.65 48.1073 83.7283C48.196 83.8039 48.2899 83.8743 48.389 83.9396C48.522 83.8796 48.6368 83.8039 48.7334 83.7126C48.8325 83.6213 48.9134 83.5222 48.976 83.4152C49.0412 83.3057 49.0894 83.1922 49.1207 83.0748C49.152 82.9574 49.1677 82.8439 49.1677 82.7343ZM53.5458 78.8213C53.658 79.8804 53.7245 80.83 53.7454 81.67C53.7532 82.103 53.7571 82.51 53.7571 82.8909C53.7571 83.1204 53.7532 83.427 53.7454 83.8104C53.7402 84.1939 53.7193 84.6022 53.6828 85.0352L52.9119 84.9922C52.9536 84.4078 52.981 83.873 52.9941 83.3878C52.9993 83.1687 53.0019 82.9587 53.0019 82.7578C53.0019 82.5152 52.998 82.2857 52.9902 82.0691C52.938 80.8039 52.8676 79.7604 52.7789 78.9387L53.5458 78.8213ZM56.2216 82.4565C56.2581 82.5791 56.2947 82.7004 56.3312 82.8204C56.3677 82.9378 56.4003 83.0565 56.429 83.1765C56.4603 83.3017 56.4916 83.4283 56.5229 83.5561C56.5568 83.6813 56.5868 83.8065 56.6129 83.9317C56.6416 84.0543 56.6651 84.1757 56.6834 84.2957C56.7016 84.4157 56.7107 84.533 56.7107 84.6478C56.7107 84.8748 56.6768 85.0939 56.609 85.3052C56.5438 85.5191 56.4512 85.7252 56.3312 85.9235C56.2138 86.1217 56.0729 86.3109 55.9086 86.4909C55.7468 86.6709 55.5694 86.8404 55.3764 86.9996C55.186 87.1587 54.9838 87.3048 54.7699 87.4378C54.5586 87.5735 54.3434 87.6948 54.1242 87.8017L53.7838 87.113C54.0577 86.9774 54.3238 86.8196 54.5821 86.6396C54.8403 86.4622 55.0699 86.2678 55.2707 86.0565C55.4742 85.8452 55.6373 85.6209 55.7599 85.3835C55.8825 85.1461 55.9438 84.9009 55.9438 84.6478C55.9438 84.5513 55.9347 84.4496 55.9164 84.3426C55.9007 84.2357 55.8799 84.1261 55.8538 84.0139C55.8277 83.9017 55.799 83.7896 55.7677 83.6774C55.7364 83.5652 55.7064 83.4557 55.6777 83.3487C55.6151 83.1296 55.5486 82.9104 55.4781 82.6913L56.2216 82.4565Z" fill="#4C4F53"/>
<circle cx="120" cy="60" r="12" fill="#D1D1D1"/>
<circle cx="120" cy="60" r="3" fill="#F1F1F1"/>
<path d="M105.38 85C104.446 84.9922 103.696 84.8839 103.13 84.6752C102.592 84.4665 102.227 84.1678 102.034 83.7791C101.925 83.5678 101.87 83.3383 101.87 83.0904C101.87 82.8426 101.921 82.5843 102.022 82.3157C102.059 82.2217 102.095 82.1357 102.132 82.0574C102.171 81.9791 102.208 81.9113 102.242 81.8539C102.275 81.7965 102.304 81.7509 102.328 81.717C102.351 81.6804 102.365 81.6583 102.371 81.6504L102.993 82.1122C102.967 82.1513 102.942 82.1891 102.918 82.2257C102.898 82.2622 102.877 82.3 102.856 82.3391C102.835 82.3757 102.814 82.4161 102.793 82.4604C102.775 82.5022 102.757 82.5504 102.738 82.6052C102.676 82.7774 102.645 82.9352 102.645 83.0787C102.645 83.2065 102.671 83.3226 102.723 83.427C102.851 83.6826 103.143 83.8796 103.599 84.0178C104.056 84.1535 104.649 84.2226 105.38 84.2252C105.586 84.2252 105.813 84.2174 106.061 84.2017C106.308 84.1835 106.562 84.1522 106.82 84.1078C107.078 84.0635 107.334 84.0035 107.587 83.9278C107.842 83.8496 108.08 83.7491 108.299 83.6265C108.288 83.5091 108.262 83.3865 108.221 83.2587C108.182 83.1283 108.135 83.0004 108.08 82.8752C108.028 82.75 107.972 82.6313 107.912 82.5191C107.852 82.4043 107.795 82.3039 107.743 82.2178C107.694 82.1291 107.651 82.0587 107.614 82.0065C107.58 81.9517 107.562 81.923 107.559 81.9204L108.209 81.4978C108.214 81.5083 108.247 81.563 108.307 81.6622C108.369 81.7587 108.441 81.8852 108.522 82.0417C108.603 82.1957 108.684 82.3704 108.765 82.5661C108.848 82.7591 108.913 82.9561 108.96 83.157C108.992 83.29 109.012 83.4087 109.023 83.513C109.025 83.5417 109.027 83.5704 109.027 83.5991C109.027 83.6696 109.015 83.7426 108.992 83.8183C108.971 83.8939 108.926 83.9709 108.858 84.0491C108.793 84.1248 108.699 84.2017 108.577 84.28C108.459 84.353 108.322 84.4222 108.166 84.4874C108.009 84.5526 107.841 84.6126 107.661 84.6674C107.481 84.7196 107.292 84.7678 107.094 84.8122C106.898 84.8539 106.701 84.8891 106.503 84.9178C106.305 84.9465 106.11 84.9674 105.92 84.9804C105.755 84.9935 105.599 85 105.45 85H105.38ZM106.002 86.4009L105.364 87.0387L104.722 86.397L105.36 85.7591L106.002 86.4009ZM110.723 78.8213C110.835 79.8804 110.902 80.83 110.923 81.67C110.93 82.103 110.934 82.51 110.934 82.8909C110.934 83.1204 110.93 83.427 110.923 83.8104C110.917 84.1939 110.897 84.6022 110.86 85.0352L110.089 84.9922C110.131 84.4078 110.158 83.873 110.171 83.3878C110.177 83.1687 110.179 82.9587 110.179 82.7578C110.179 82.5152 110.175 82.2857 110.167 82.0691C110.115 80.8039 110.045 79.7604 109.956 78.9387L110.723 78.8213ZM111.771 86.9917C112.173 86.9109 112.533 86.7987 112.851 86.6552C113.169 86.5117 113.442 86.35 113.669 86.17C113.896 85.99 114.075 85.7983 114.205 85.5948C114.338 85.3939 114.419 85.1957 114.448 85H114.268C114.205 85 114.116 85 114.001 85C113.889 85 113.761 84.9935 113.618 84.9804C113.052 84.9465 112.633 84.7613 112.362 84.4248C112.242 84.2735 112.166 84.0987 112.135 83.9004C112.117 83.7961 112.108 83.6917 112.108 83.5874C112.108 83.4883 112.118 83.363 112.139 83.2117C112.162 83.0578 112.215 82.8843 112.295 82.6913C112.376 82.4957 112.471 82.3274 112.581 82.1865C112.714 82.0222 112.858 81.8983 113.011 81.8148C113.168 81.7287 113.33 81.6857 113.497 81.6857C113.867 81.6857 114.208 81.8526 114.518 82.1865C114.628 82.3091 114.727 82.4474 114.815 82.6013C114.904 82.7552 114.98 82.9209 115.042 83.0983C115.105 83.273 115.155 83.457 115.191 83.65C115.228 83.8404 115.248 84.0348 115.254 84.233H115.625V85H115.195C115.117 85.3861 114.975 85.7343 114.768 86.0448C114.565 86.3578 114.317 86.6304 114.025 86.8626C113.735 87.0948 113.412 87.2852 113.055 87.4339C112.7 87.5826 112.332 87.687 111.951 87.747L111.771 86.9917ZM113.497 82.4565C113.421 82.4565 113.349 82.4865 113.281 82.5465C113.214 82.6039 113.152 82.6783 113.098 82.7696C113.045 82.8609 113.001 82.9639 112.965 83.0787C112.928 83.1909 112.903 83.3017 112.89 83.4113C112.882 83.4713 112.878 83.53 112.878 83.5874C112.878 83.6343 112.882 83.693 112.89 83.7635C112.901 83.8313 112.928 83.8926 112.972 83.9474C113.011 83.9996 113.06 84.0426 113.117 84.0765C113.177 84.1078 113.24 84.1339 113.305 84.1548C113.373 84.173 113.438 84.1874 113.501 84.1978C113.566 84.2057 113.622 84.2109 113.669 84.2135C113.799 84.2213 113.922 84.2252 114.037 84.2252C114.065 84.2252 114.12 84.2252 114.201 84.2252C114.285 84.2226 114.377 84.2174 114.479 84.2096C114.471 84.0426 114.451 83.8848 114.42 83.7361C114.389 83.5874 114.348 83.4491 114.299 83.3213C114.249 83.1935 114.193 83.0787 114.131 82.977C114.071 82.8726 114.008 82.7826 113.943 82.707C113.917 82.6809 113.887 82.6535 113.853 82.6248C113.821 82.5935 113.786 82.5661 113.747 82.5426C113.711 82.5165 113.671 82.4957 113.63 82.48C113.588 82.4643 113.544 82.4565 113.497 82.4565ZM115.466 84.233H116.315C116.662 84.233 117.009 84.2004 117.356 84.1352C117.703 84.0674 118.044 83.9787 118.381 83.8691C118.717 83.7596 119.046 83.6343 119.367 83.4935C119.688 83.3526 119.997 83.2078 120.294 83.0591C120.114 82.9965 119.942 82.9287 119.778 82.8557C119.614 82.7826 119.452 82.7083 119.293 82.6326C119.17 82.5752 119.05 82.5204 118.933 82.4683C118.818 82.4135 118.706 82.3652 118.596 82.3235C118.489 82.2817 118.387 82.2491 118.291 82.2257C118.194 82.1996 118.106 82.1865 118.025 82.1865C117.918 82.1865 117.816 82.21 117.72 82.257C117.623 82.3039 117.533 82.3639 117.45 82.437C117.369 82.5074 117.296 82.5843 117.23 82.6678C117.165 82.7487 117.109 82.8257 117.062 82.8987C117.015 82.9691 116.979 83.0291 116.953 83.0787C116.929 83.1257 116.917 83.1504 116.917 83.153L116.213 82.8361C116.216 82.8309 116.226 82.8087 116.244 82.7696C116.265 82.7278 116.294 82.6757 116.33 82.613C116.37 82.5504 116.415 82.4787 116.467 82.3978C116.522 82.317 116.585 82.2348 116.655 82.1513C116.859 81.9061 117.074 81.7222 117.301 81.5996C117.53 81.477 117.772 81.4157 118.025 81.4157C118.15 81.4157 118.277 81.43 118.404 81.4587C118.535 81.4874 118.667 81.5265 118.8 81.5761C118.933 81.623 119.068 81.6778 119.207 81.7404C119.345 81.803 119.484 81.867 119.625 81.9322C119.779 82.0052 119.934 82.077 120.091 82.1474C120.25 82.2178 120.409 82.2817 120.568 82.3391C120.727 82.3939 120.887 82.4383 121.046 82.4722C121.205 82.5061 121.365 82.523 121.527 82.523L121.676 83.2665C121.493 83.3422 121.312 83.4243 121.132 83.513C120.952 83.5991 120.764 83.6904 120.568 83.787C120.281 83.9304 119.972 84.0739 119.641 84.2174C119.312 84.3609 118.967 84.4913 118.604 84.6087C118.244 84.7235 117.871 84.8174 117.485 84.8904C117.099 84.9635 116.709 85 116.315 85H115.466V84.233ZM118.635 80.0539L117.997 80.6917L117.356 80.05L117.994 79.4122L118.635 80.0539ZM128.509 82.4761C128.415 82.4761 128.313 82.5439 128.204 82.6796C128.17 82.7213 128.135 82.7748 128.098 82.84C128.064 82.9026 128.032 82.973 128 83.0513C127.972 83.127 127.947 83.2078 127.926 83.2939C127.908 83.3774 127.896 83.4596 127.891 83.5404V83.5991C127.891 83.6591 127.896 83.7217 127.906 83.787C127.919 83.8496 127.945 83.907 127.985 83.9591C128.024 84.0113 128.073 84.053 128.133 84.0843C128.193 84.1157 128.256 84.1404 128.321 84.1587C128.389 84.177 128.454 84.1913 128.517 84.2017C128.582 84.2096 128.638 84.2148 128.685 84.2174C128.849 84.2304 129.001 84.237 129.139 84.237C129.275 84.237 129.392 84.233 129.491 84.2252C129.483 84.0583 129.464 83.9004 129.432 83.7517C129.401 83.603 129.361 83.4648 129.311 83.337C129.264 83.2091 129.209 83.0943 129.147 82.9926C129.087 82.8883 129.024 82.7983 128.959 82.7226C128.904 82.6652 128.838 82.6104 128.759 82.5583C128.684 82.5035 128.6 82.4761 128.509 82.4761ZM128.638 84.9961C128.354 84.9909 128.105 84.94 127.891 84.8435C127.677 84.7443 127.506 84.6087 127.378 84.4365C127.292 84.34 127.228 84.2304 127.186 84.1078C127.145 83.9852 127.121 83.8548 127.116 83.7165C127.113 83.6826 127.112 83.6487 127.112 83.6148C127.112 83.5104 127.122 83.397 127.143 83.2743C127.164 83.1517 127.197 83.0239 127.241 82.8909C127.285 82.7552 127.338 82.6287 127.398 82.5113C127.46 82.3939 127.527 82.2909 127.597 82.2022C127.725 82.0378 127.867 81.9126 128.024 81.8265C128.18 81.7404 128.342 81.6974 128.509 81.6974C128.697 81.6974 128.874 81.7404 129.041 81.8265C129.211 81.91 129.374 82.0352 129.53 82.2022C129.661 82.3483 129.773 82.5165 129.867 82.707C129.963 82.8974 130.04 83.1022 130.098 83.3213C130.158 83.5378 130.199 83.7622 130.223 83.9943C130.239 84.1561 130.246 84.3191 130.246 84.4835C130.246 84.5539 130.245 84.6257 130.242 84.6987C130.229 84.9413 130.193 85.1787 130.133 85.4109C130.073 85.643 129.988 85.8622 129.879 86.0683C129.772 86.277 129.64 86.4687 129.483 86.6435C129.329 86.8183 129.152 86.9683 128.951 87.0935C128.75 87.2213 128.526 87.3204 128.278 87.3909C128.033 87.4639 127.765 87.5004 127.476 87.5004H127.468C127.231 87.5004 127 87.477 126.775 87.43C126.551 87.3857 126.34 87.3152 126.142 87.2187C125.946 87.1222 125.765 87.0009 125.598 86.8548C125.433 86.7087 125.292 86.5352 125.175 86.3343C125.039 86.1126 124.943 85.87 124.885 85.6065C124.841 85.4187 124.819 85.2217 124.819 85.0157C124.819 84.9322 124.823 84.8487 124.831 84.7652C124.852 84.4574 124.912 84.147 125.011 83.8339C125.112 83.5209 125.253 83.1961 125.433 82.8596L126.118 83.2274C125.975 83.4935 125.86 83.7543 125.774 84.01C125.69 84.263 125.637 84.5043 125.613 84.7339C125.603 84.8304 125.598 84.9243 125.598 85.0157C125.598 85.1435 125.612 85.287 125.641 85.4461C125.669 85.6078 125.733 85.7722 125.832 85.9391C125.911 86.067 126.007 86.1791 126.122 86.2757C126.239 86.3748 126.37 86.457 126.513 86.5222C126.659 86.59 126.817 86.6409 126.987 86.6748C127.159 86.7087 127.339 86.7257 127.527 86.7257C127.722 86.7257 127.905 86.6996 128.075 86.6474C128.244 86.5978 128.399 86.53 128.54 86.4439C128.681 86.3578 128.806 86.2574 128.916 86.1426C129.025 86.0278 129.118 85.9065 129.194 85.7787C129.269 85.6509 129.327 85.5204 129.366 85.3874C129.408 85.257 129.431 85.1304 129.436 85.0078L128.638 84.9961ZM128.286 80.2535L127.652 80.8874L127.01 80.2496L127.644 79.6117L128.286 80.2535ZM129.89 80.2574L129.256 80.8952L128.615 80.2535L129.249 79.6196L129.89 80.2574ZM133.112 85C132.825 85 132.579 84.9661 132.376 84.8983C132.175 84.8304 132.004 84.7261 131.863 84.5852C131.777 84.4991 131.711 84.4065 131.664 84.3074C131.619 84.2083 131.586 84.1104 131.562 84.0139C131.541 83.9174 131.529 83.8261 131.527 83.74C131.524 83.6513 131.523 83.5757 131.523 83.513C131.523 83.4922 131.523 83.4309 131.523 83.3291C131.526 83.2248 131.528 83.0917 131.531 82.93C131.533 82.7683 131.535 82.583 131.535 82.3743C131.535 82.1683 131.533 81.9504 131.531 81.7209C131.531 81.4965 131.528 81.263 131.523 81.0204C131.518 80.7778 131.509 80.543 131.496 80.3161C131.485 80.0891 131.471 79.8804 131.453 79.69C131.437 79.497 131.417 79.3391 131.394 79.2165L132.161 79.0757C132.184 79.2087 132.204 79.3717 132.219 79.5648C132.238 79.7578 132.252 79.9678 132.263 80.1948C132.276 80.4217 132.285 80.6591 132.29 80.907C132.298 81.1522 132.302 81.3922 132.302 81.627V83.5913C132.302 83.68 132.306 83.7635 132.313 83.8417C132.324 83.9174 132.359 83.9839 132.419 84.0413C132.479 84.1013 132.568 84.1483 132.685 84.1822C132.805 84.2161 132.947 84.233 133.112 84.233H133.19V85H133.112ZM133.035 84.233H133.79C133.942 84.233 134.089 84.2304 134.232 84.2252C134.376 84.2174 134.509 84.1978 134.632 84.1665C134.754 84.1352 134.862 84.0896 134.956 84.0296C135.05 83.967 135.123 83.8809 135.175 83.7713C135.202 83.7165 135.221 83.6474 135.234 83.5639C135.242 83.5091 135.246 83.4504 135.246 83.3878C135.246 83.3539 135.243 83.303 135.238 83.2352C135.233 83.1648 135.216 83.0696 135.187 82.9496C135.158 82.827 135.117 82.6991 135.062 82.5661L134.722 81.7287L135.418 81.3843C135.418 81.387 135.43 81.4143 135.453 81.4665C135.477 81.5161 135.507 81.5839 135.543 81.67C135.582 81.7561 135.624 81.8565 135.668 81.9713C135.713 82.0835 135.755 82.2035 135.794 82.3313C135.911 82.7096 135.979 83.0435 135.997 83.333C136 83.3748 136.001 83.4165 136.001 83.4583C136.001 83.6957 135.962 83.9043 135.884 84.0843C135.805 84.2617 135.701 84.4091 135.571 84.5265C135.443 84.6439 135.295 84.7378 135.128 84.8083C134.962 84.8787 134.778 84.9283 134.577 84.957C134.378 84.9857 134.172 85 133.958 85H133.035V84.233ZM134.694 80.05L134.06 80.6839L133.418 80.0461L134.052 79.4083L134.694 80.05ZM136.298 80.0539L135.665 80.6917L135.023 80.05L135.657 79.4161L136.298 80.0539ZM137.767 78.8213C137.879 79.8804 137.946 80.83 137.967 81.67C137.974 82.103 137.978 82.51 137.978 82.8909C137.978 83.1204 137.974 83.427 137.967 83.8104C137.961 84.1939 137.94 84.6022 137.904 85.0352L137.133 84.9922C137.175 84.4078 137.202 83.873 137.215 83.3878C137.22 83.1687 137.223 82.9587 137.223 82.7578C137.223 82.5152 137.219 82.2857 137.211 82.0691C137.159 80.8039 137.089 79.7604 137 78.9387L137.767 78.8213Z" fill="#4C4F53"/>
<circle cx="192" cy="60" r="12" fill="#203E76"/>
<circle cx="192" cy="60" r="6" fill="white"/>
<path d="M181.831 87.5513C181.604 87.5513 181.37 87.5396 181.127 87.5161C180.884 87.4952 180.651 87.4509 180.427 87.383C180.205 87.3152 179.999 87.2187 179.808 87.0935C179.62 86.9709 179.467 86.8078 179.347 86.6043C179.093 86.2339 178.967 85.763 178.967 85.1917C178.967 85.1291 178.968 85.0652 178.971 85C179.005 84.2904 179.227 83.44 179.636 82.4487L180.352 82.7383C179.943 83.7452 179.738 84.5657 179.738 85.1996C179.738 85.6013 179.82 85.9274 179.984 86.1778C180.091 86.3317 180.223 86.4491 180.38 86.53C180.539 86.6135 180.703 86.6735 180.873 86.71C181.045 86.7465 181.214 86.7674 181.381 86.7726C181.551 86.7778 181.701 86.7804 181.831 86.7804C181.907 86.7804 182.014 86.7739 182.152 86.7609C182.29 86.7504 182.44 86.7309 182.602 86.7022C182.764 86.6735 182.928 86.6343 183.095 86.5848C183.265 86.5378 183.417 86.4791 183.553 86.4087C183.689 86.3383 183.8 86.2548 183.886 86.1583C183.974 86.0617 184.019 85.9496 184.019 85.8217C184.019 85.7904 184.004 85.7526 183.976 85.7083C183.947 85.6665 183.9 85.6209 183.835 85.5713C183.772 85.5243 183.69 85.4735 183.588 85.4187C183.487 85.3639 183.361 85.3091 183.213 85.2543C183.121 85.223 183.03 85.1943 182.939 85.1683C182.85 85.1422 182.767 85.1187 182.688 85.0978C182.61 85.077 182.538 85.0587 182.473 85.043C182.408 85.03 182.354 85.0196 182.313 85.0117L182.227 84.9961L182.285 84.233H185.373V85H184.363C184.452 85.073 184.523 85.1461 184.578 85.2191C184.636 85.2948 184.68 85.3678 184.711 85.4383C184.743 85.5087 184.763 85.5765 184.774 85.6417C184.784 85.707 184.79 85.767 184.79 85.8217C184.787 86.0435 184.736 86.2404 184.637 86.4126C184.538 86.5848 184.407 86.7348 184.246 86.8626C184.084 86.9904 183.9 87.0974 183.694 87.1835C183.488 87.2722 183.275 87.3439 183.056 87.3987C182.84 87.4535 182.624 87.4926 182.41 87.5161C182.197 87.5396 182.003 87.5513 181.831 87.5513ZM185.22 84.233H185.975C186.127 84.233 186.274 84.2304 186.417 84.2252C186.561 84.2174 186.694 84.1978 186.817 84.1665C186.939 84.1352 187.047 84.0896 187.141 84.0296C187.235 83.967 187.308 83.8809 187.361 83.7713C187.387 83.7165 187.406 83.6474 187.419 83.5639C187.427 83.5091 187.431 83.4504 187.431 83.3878C187.431 83.3539 187.428 83.303 187.423 83.2352C187.418 83.1648 187.401 83.0696 187.372 82.9496C187.344 82.827 187.302 82.6991 187.247 82.5661L186.907 81.7287L187.603 81.3843C187.603 81.387 187.615 81.4143 187.638 81.4665C187.662 81.5161 187.692 81.5839 187.728 81.67C187.767 81.7561 187.809 81.8565 187.854 81.9713C187.898 82.0835 187.94 82.2035 187.979 82.3313C188.096 82.7096 188.164 83.0435 188.182 83.333C188.185 83.3748 188.186 83.4165 188.186 83.4583C188.186 83.6957 188.147 83.9043 188.069 84.0843C187.991 84.2617 187.886 84.4091 187.756 84.5265C187.628 84.6439 187.481 84.7378 187.314 84.8083C187.147 84.8787 186.963 84.9283 186.762 84.957C186.564 84.9857 186.357 85 186.144 85H185.22V84.233ZM186.582 86.2796L185.948 86.9135L185.306 86.2757L185.94 85.6378L186.582 86.2796ZM188.186 86.2835L187.552 86.9213L186.911 86.2796L187.544 85.6457L188.186 86.2835ZM189.952 78.8213C190.064 79.8804 190.131 80.83 190.152 81.67C190.159 82.103 190.163 82.51 190.163 82.8909C190.163 83.1204 190.159 83.427 190.152 83.8104C190.146 84.1939 190.126 84.6022 190.089 85.0352L189.318 84.9922C189.36 84.4078 189.387 83.873 189.4 83.3878C189.406 83.1687 189.408 82.9587 189.408 82.7578C189.408 82.5152 189.404 82.2857 189.396 82.0691C189.344 80.8039 189.274 79.7604 189.185 78.9387L189.952 78.8213ZM193.14 84.73C193.14 85.0717 193.067 85.3978 192.921 85.7083C192.775 86.0187 192.581 86.307 192.338 86.573C192.098 86.8417 191.823 87.087 191.513 87.3087C191.202 87.5304 190.883 87.7235 190.554 87.8878L190.217 87.1952C190.405 87.0987 190.592 86.9917 190.777 86.8743C190.962 86.7596 191.137 86.6357 191.301 86.5026C191.466 86.3696 191.617 86.2287 191.755 86.08C191.894 85.9339 192.01 85.78 192.104 85.6183C192.2 85.4565 192.272 85.2883 192.319 85.1135C192.353 84.9883 192.37 84.8604 192.37 84.73C192.37 84.6778 192.367 84.6296 192.362 84.5852C192.344 84.4365 192.315 84.2774 192.276 84.1078C192.239 83.9357 192.199 83.7674 192.154 83.603C192.11 83.4387 192.066 83.2848 192.021 83.1413C191.977 82.9952 191.939 82.8739 191.908 82.7774L192.644 82.5504C192.743 82.853 192.839 83.1113 192.933 83.3252C193.027 83.5365 193.124 83.71 193.223 83.8457C193.322 83.9787 193.425 84.0765 193.532 84.1391C193.641 84.2017 193.761 84.233 193.892 84.233H193.954V85H193.888C193.851 85 193.804 84.9987 193.747 84.9961C193.69 84.9935 193.626 84.983 193.555 84.9648C193.487 84.9465 193.417 84.9178 193.344 84.8787C193.274 84.8396 193.206 84.7848 193.14 84.7143V84.73ZM193.807 84.233H194.562C194.714 84.233 194.861 84.2304 195.004 84.2252C195.148 84.2174 195.281 84.1978 195.404 84.1665C195.526 84.1352 195.634 84.0896 195.728 84.0296C195.822 83.967 195.895 83.8809 195.947 83.7713C195.974 83.7165 195.993 83.6474 196.006 83.5639C196.014 83.5091 196.018 83.4504 196.018 83.3878C196.018 83.3539 196.015 83.303 196.01 83.2352C196.005 83.1648 195.988 83.0696 195.959 82.9496C195.93 82.827 195.889 82.6991 195.834 82.5661L195.494 81.7287L196.19 81.3843C196.19 81.387 196.202 81.4143 196.225 81.4665C196.249 81.5161 196.279 81.5839 196.315 81.67C196.354 81.7561 196.396 81.8565 196.44 81.9713C196.485 82.0835 196.527 82.2035 196.566 82.3313C196.683 82.7096 196.751 83.0435 196.769 83.333C196.772 83.3748 196.773 83.4165 196.773 83.4583C196.773 83.6957 196.734 83.9043 196.656 84.0843C196.577 84.2617 196.473 84.4091 196.343 84.5265C196.215 84.6439 196.067 84.7378 195.9 84.8083C195.734 84.8787 195.55 84.9283 195.349 84.957C195.15 84.9857 194.944 85 194.73 85H193.807V84.233ZM195.169 86.2796L194.535 86.9135L193.893 86.2757L194.527 85.6378L195.169 86.2796ZM196.773 86.2835L196.139 86.9213L195.497 86.2796L196.131 85.6457L196.773 86.2835ZM202.198 84.233V85H202.119C201.95 85 201.799 84.987 201.666 84.9609C201.535 84.9322 201.419 84.8943 201.317 84.8474C201.218 84.8004 201.131 84.7457 201.055 84.683C200.979 84.6178 200.914 84.55 200.859 84.4796C200.75 84.5657 200.639 84.6413 200.527 84.7065C200.417 84.7717 200.299 84.8265 200.171 84.8709C200.046 84.9126 199.909 84.9452 199.76 84.9687C199.611 84.9896 199.444 85 199.259 85C198.951 85 198.666 84.9374 198.402 84.8122C198.141 84.6843 197.9 84.5057 197.678 84.2761L198.12 83.6539C198.277 83.8 198.435 83.9161 198.594 84.0022C198.753 84.0883 198.911 84.1483 199.067 84.1822C199.172 84.2057 199.276 84.2174 199.38 84.2174C199.43 84.2174 199.503 84.2135 199.599 84.2057C199.699 84.1952 199.819 84.1626 199.959 84.1078C200.092 84.0557 200.201 83.9996 200.284 83.9396C200.37 83.877 200.436 83.8235 200.48 83.7791L199.243 80.8052L199.956 80.5078C200.081 80.813 200.194 81.0909 200.296 81.3413C200.4 81.5917 200.498 81.8291 200.589 82.0535C200.683 82.2778 200.775 82.4996 200.863 82.7187C200.955 82.9352 201.051 83.1622 201.153 83.3996C201.205 83.5248 201.255 83.6396 201.302 83.7439C201.351 83.8457 201.41 83.933 201.478 84.0061C201.546 84.0765 201.63 84.1326 201.732 84.1743C201.834 84.2135 201.963 84.233 202.119 84.233H202.198ZM200.257 79.1774L199.619 79.8152L198.977 79.1735L199.615 78.5357L200.257 79.1774ZM202.042 84.233H202.798C202.949 84.233 203.096 84.2304 203.24 84.2252C203.383 84.2174 203.516 84.1978 203.639 84.1665C203.761 84.1352 203.87 84.0896 203.964 84.0296C204.058 83.967 204.131 83.8809 204.183 83.7713C204.209 83.7165 204.228 83.6474 204.241 83.5639C204.249 83.5091 204.253 83.4504 204.253 83.3878C204.253 83.3539 204.251 83.303 204.245 83.2352C204.24 83.1648 204.223 83.0696 204.195 82.9496C204.166 82.827 204.124 82.6991 204.069 82.5661L203.729 81.7287L204.425 81.3843C204.425 81.387 204.437 81.4143 204.461 81.4665C204.484 81.5161 204.514 81.5839 204.551 81.67C204.59 81.7561 204.631 81.8565 204.676 81.9713C204.72 82.0835 204.762 82.2035 204.801 82.3313C204.918 82.7096 204.986 83.0435 205.005 83.333C205.007 83.3748 205.008 83.4165 205.008 83.4583C205.008 83.6957 204.969 83.9043 204.891 84.0843C204.813 84.2617 204.708 84.4091 204.578 84.5265C204.45 84.6439 204.303 84.7378 204.136 84.8083C203.969 84.8787 203.785 84.9283 203.584 84.957C203.386 84.9857 203.18 85 202.966 85H202.042V84.233ZM204.465 85.763L205.098 86.397L204.457 87.0387L203.823 86.4048L204.465 85.763ZM202.755 85.767L203.388 86.4048L202.747 87.0465L202.113 86.4087L202.755 85.767ZM203.623 87.0035L204.202 87.5826L203.619 88.1657L203.04 87.5865L203.623 87.0035Z" fill="#4C4F53"/>
<circle cx="264" cy="60" r="12" fill="#203E76"/>
<circle cx="264" cy="60" r="6" fill="white"/>
<path d="M252.594 84.233V85H252.516C252.417 85 252.298 84.9922 252.16 84.9765C252.024 84.9583 251.888 84.9178 251.753 84.8552C251.547 84.7587 251.374 84.5996 251.236 84.3778C251.072 84.4039 250.919 84.4235 250.778 84.4365C250.64 84.447 250.507 84.4522 250.379 84.4522C249.706 84.4522 249.238 84.2891 248.974 83.963C248.901 83.877 248.849 83.783 248.818 83.6813C248.789 83.5796 248.774 83.4804 248.771 83.3839V83.3135C248.771 83.243 248.777 83.1713 248.79 83.0983C248.804 83.0252 248.822 82.9613 248.845 82.9065C248.916 82.7604 248.999 82.6261 249.096 82.5035C249.195 82.3809 249.299 82.2713 249.409 82.1748C249.521 82.0757 249.636 81.9883 249.753 81.9126C249.873 81.8343 249.988 81.7665 250.097 81.7091C250.21 81.6491 250.315 81.5996 250.414 81.5604C250.514 81.5187 250.6 81.4848 250.673 81.4587C250.652 81.2604 250.636 81.1157 250.626 81.0243C250.618 80.9304 250.614 80.8822 250.614 80.8796L251.381 80.7191V80.7152C251.384 80.7361 251.389 80.7843 251.397 80.86C251.404 80.933 251.414 81.0204 251.424 81.1222C251.434 81.2213 251.445 81.3283 251.455 81.443C251.468 81.5552 251.48 81.6609 251.49 81.76C251.501 81.8591 251.51 81.9452 251.518 82.0183C251.526 82.0913 251.531 82.137 251.534 82.1552C251.575 82.4917 251.613 82.767 251.647 82.9809C251.681 83.1948 251.711 83.3657 251.737 83.4935C251.763 83.6213 251.784 83.7126 251.8 83.7674C251.815 83.8196 251.827 83.8535 251.835 83.8691C251.897 84.01 251.981 84.1065 252.085 84.1587C252.19 84.2083 252.333 84.233 252.516 84.233H252.594ZM250.763 82.253C250.7 82.2791 250.626 82.3117 250.54 82.3509C250.454 82.3874 250.364 82.4304 250.27 82.48C250.178 82.527 250.087 82.5791 249.996 82.6365C249.907 82.6939 249.826 82.7565 249.753 82.8243C249.683 82.8922 249.625 82.9652 249.581 83.0435C249.537 83.1191 249.514 83.1987 249.514 83.2822C249.514 83.3657 249.54 83.4348 249.593 83.4896C249.647 83.5443 249.717 83.5874 249.8 83.6187C249.886 83.6474 249.983 83.667 250.09 83.6774C250.178 83.6878 250.268 83.693 250.36 83.693C250.378 83.693 250.418 83.693 250.481 83.693C250.544 83.6904 250.623 83.6839 250.72 83.6735C250.819 83.663 250.902 83.6513 250.97 83.6383C250.939 83.487 250.906 83.3017 250.872 83.0826C250.841 82.8635 250.804 82.587 250.763 82.253ZM252.439 84.233H252.893C253.044 84.233 253.184 84.2304 253.311 84.2252C253.439 84.2174 253.555 84.1978 253.66 84.1665C253.764 84.1352 253.855 84.0896 253.934 84.0296C254.012 83.967 254.077 83.8809 254.129 83.7713C254.155 83.7165 254.175 83.6474 254.188 83.5639C254.196 83.5091 254.2 83.4504 254.2 83.3878C254.2 83.3539 254.197 83.303 254.192 83.2352C254.187 83.1648 254.17 83.0696 254.141 82.9496C254.112 82.827 254.071 82.6991 254.016 82.5661L253.675 81.7287L254.372 81.3843C254.372 81.387 254.384 81.4143 254.407 81.4665C254.431 81.5161 254.461 81.5839 254.497 81.67C254.536 81.7561 254.578 81.8565 254.622 81.9713C254.667 82.0835 254.708 82.2035 254.748 82.3313C254.865 82.7096 254.933 83.0435 254.951 83.333C254.954 83.3748 254.955 83.4165 254.955 83.4583C254.955 83.6957 254.916 83.9043 254.838 84.0843C254.759 84.2617 254.663 84.4091 254.548 84.5265C254.436 84.6439 254.305 84.7378 254.157 84.8083C254.008 84.8787 253.841 84.9283 253.656 84.957C253.473 84.9857 253.275 85 253.061 85H252.439V84.233ZM254.325 80.093L253.687 80.7309L253.045 80.0891L253.683 79.4513L254.325 80.093ZM257.754 85C257.467 85 257.222 84.9661 257.018 84.8983C256.817 84.8304 256.646 84.7261 256.505 84.5852C256.419 84.4991 256.353 84.4065 256.306 84.3074C256.262 84.2083 256.228 84.1104 256.204 84.0139C256.183 83.9174 256.172 83.8261 256.169 83.74C256.166 83.6513 256.165 83.5757 256.165 83.513C256.165 83.4922 256.165 83.4309 256.165 83.3291C256.168 83.2248 256.17 83.0917 256.173 82.93C256.175 82.7683 256.177 82.583 256.177 82.3743C256.177 82.1683 256.175 81.9504 256.173 81.7209C256.173 81.4965 256.17 81.263 256.165 81.0204C256.16 80.7778 256.151 80.543 256.138 80.3161C256.127 80.0891 256.113 79.8804 256.095 79.69C256.079 79.497 256.059 79.3391 256.036 79.2165L256.803 79.0757C256.826 79.2087 256.846 79.3717 256.862 79.5648C256.88 79.7578 256.894 79.9678 256.905 80.1948C256.918 80.4217 256.927 80.6591 256.932 80.907C256.94 81.1522 256.944 81.3922 256.944 81.627V83.5913C256.944 83.68 256.948 83.7635 256.955 83.8417C256.966 83.9174 257.001 83.9839 257.061 84.0413C257.121 84.1013 257.21 84.1483 257.327 84.1822C257.447 84.2161 257.589 84.233 257.754 84.233H257.832V85H257.754ZM257.677 84.233H258.526C258.873 84.233 259.22 84.2004 259.567 84.1352C259.914 84.0674 260.256 83.9787 260.592 83.8691C260.929 83.7596 261.258 83.6343 261.578 83.4935C261.899 83.3526 262.208 83.2078 262.506 83.0591C262.326 82.9965 262.154 82.9287 261.989 82.8557C261.825 82.7826 261.663 82.7083 261.504 82.6326C261.381 82.5752 261.261 82.5204 261.144 82.4683C261.029 82.4135 260.917 82.3652 260.808 82.3235C260.701 82.2817 260.599 82.2491 260.502 82.2257C260.406 82.1996 260.317 82.1865 260.236 82.1865C260.129 82.1865 260.028 82.21 259.931 82.257C259.835 82.3039 259.745 82.3639 259.661 82.437C259.58 82.5074 259.507 82.5843 259.442 82.6678C259.377 82.7487 259.321 82.8257 259.274 82.8987C259.227 82.9691 259.19 83.0291 259.164 83.0787C259.141 83.1257 259.129 83.1504 259.129 83.153L258.425 82.8361C258.427 82.8309 258.438 82.8087 258.456 82.7696C258.477 82.7278 258.505 82.6757 258.542 82.613C258.581 82.5504 258.627 82.4787 258.679 82.3978C258.734 82.317 258.796 82.2348 258.867 82.1513C259.07 81.9061 259.285 81.7222 259.512 81.5996C259.742 81.477 259.983 81.4157 260.236 81.4157C260.361 81.4157 260.488 81.43 260.616 81.4587C260.746 81.4874 260.878 81.5265 261.011 81.5761C261.144 81.623 261.28 81.6778 261.418 81.7404C261.556 81.803 261.696 81.867 261.837 81.9322C261.991 82.0052 262.146 82.077 262.302 82.1474C262.461 82.2178 262.621 82.2817 262.78 82.3391C262.939 82.3939 263.098 82.4383 263.257 82.4722C263.416 82.5061 263.577 82.523 263.738 82.523L263.887 83.2665C263.705 83.3422 263.523 83.4243 263.343 83.513C263.163 83.5991 262.975 83.6904 262.78 83.787C262.493 83.9304 262.184 84.0739 261.852 84.2174C261.524 84.3609 261.178 84.4913 260.815 84.6087C260.455 84.7235 260.082 84.8174 259.696 84.8904C259.31 84.9635 258.92 85 258.526 85H257.677V84.233ZM260.847 80.0539L260.209 80.6917L259.567 80.05L260.205 79.4122L260.847 80.0539ZM266.415 84.73C266.415 85.0717 266.342 85.3978 266.196 85.7083C266.05 86.0187 265.855 86.307 265.613 86.573C265.373 86.8417 265.097 87.087 264.787 87.3087C264.477 87.5304 264.157 87.7235 263.828 87.8878L263.492 87.1952C263.68 87.0987 263.866 86.9917 264.051 86.8743C264.237 86.7596 264.411 86.6357 264.576 86.5026C264.74 86.3696 264.891 86.2287 265.03 86.08C265.168 85.9339 265.284 85.78 265.378 85.6183C265.474 85.4565 265.546 85.2883 265.593 85.1135C265.627 84.9883 265.644 84.8604 265.644 84.73C265.644 84.6778 265.641 84.6296 265.636 84.5852C265.618 84.4365 265.589 84.2774 265.55 84.1078C265.514 83.9357 265.473 83.7674 265.429 83.603C265.384 83.4387 265.34 83.2848 265.296 83.1413C265.251 82.9952 265.214 82.8739 265.182 82.7774L265.918 82.5504C266.017 82.853 266.114 83.1113 266.207 83.3252C266.301 83.5365 266.398 83.71 266.497 83.8457C266.596 83.9787 266.699 84.0765 266.806 84.1391C266.916 84.2017 267.036 84.233 267.166 84.233H267.229V85H267.162C267.126 85 267.079 84.9987 267.021 84.9961C266.964 84.9935 266.9 84.983 266.83 84.9648C266.762 84.9465 266.691 84.9178 266.618 84.8787C266.548 84.8396 266.48 84.7848 266.415 84.7143V84.73ZM266.153 80.8522L265.515 81.49L264.873 80.8483L265.511 80.2104L266.153 80.8522ZM270.572 84.233V85H270.494C270.23 85 270.011 84.9557 269.836 84.867C269.661 84.7757 269.518 84.6583 269.406 84.5148C269.322 84.5957 269.231 84.6674 269.132 84.73C269.033 84.79 268.915 84.8409 268.78 84.8826C268.644 84.9217 268.485 84.9517 268.302 84.9726C268.122 84.9909 267.91 85 267.664 85H267.081V84.233H267.664C267.912 84.233 268.124 84.2135 268.298 84.1743C268.476 84.1352 268.619 84.0765 268.729 83.9983C268.841 83.92 268.923 83.8222 268.975 83.7048C269.027 83.5874 269.054 83.4504 269.054 83.2939C269.054 83.1452 269.042 82.9939 269.018 82.84C268.997 82.6861 268.958 82.51 268.901 82.3117L269.637 82.1043C269.663 82.1957 269.685 82.2843 269.703 82.3704C269.721 82.4539 269.737 82.5426 269.75 82.6365C269.763 82.7304 269.775 82.8322 269.785 82.9417C269.798 83.0513 269.81 83.1752 269.821 83.3135C269.828 83.41 269.843 83.5117 269.864 83.6187C269.884 83.7257 269.918 83.8248 269.965 83.9161C270.015 84.0074 270.081 84.083 270.165 84.143C270.251 84.203 270.361 84.233 270.494 84.233H270.572ZM269.504 85.763L270.137 86.397L269.496 87.0387L268.862 86.4048L269.504 85.763ZM267.794 85.767L268.427 86.4048L267.786 87.0465L267.152 86.4087L267.794 85.767ZM268.662 87.0035L269.241 87.5826L268.658 88.1657L268.079 87.5865L268.662 87.0035ZM270.412 84.233H270.499C270.652 84.233 270.791 84.203 270.913 84.143C271.036 84.0804 271.144 83.9996 271.238 83.9004C271.335 83.7987 271.418 83.6826 271.489 83.5522C271.559 83.4217 271.62 83.2861 271.672 83.1452C271.725 83.0017 271.769 82.8583 271.806 82.7148C271.842 82.5713 271.873 82.4357 271.899 82.3078L272.674 82.4722C272.653 82.5348 272.627 82.6157 272.596 82.7148C272.567 82.8139 272.539 82.9209 272.51 83.0357C272.481 83.1478 272.456 83.2639 272.436 83.3839C272.415 83.5013 272.404 83.6109 272.404 83.7126C272.404 83.783 272.411 83.8522 272.424 83.92C272.437 83.9852 272.459 84.0439 272.49 84.0961C272.522 84.1483 272.565 84.19 272.619 84.2213C272.674 84.2526 272.743 84.2683 272.827 84.2683C272.96 84.2683 273.079 84.2317 273.183 84.1587C273.29 84.0857 273.384 83.9904 273.465 83.873C273.548 83.7557 273.62 83.6226 273.68 83.4739C273.742 83.3252 273.795 83.1739 273.836 83.02C273.881 82.8661 273.916 82.7174 273.942 82.5739C273.971 82.4278 273.993 82.3013 274.009 82.1943L274.76 82.3313L274.74 82.4565C274.725 82.5426 274.706 82.647 274.686 82.7696C274.667 82.8896 274.65 83.0187 274.635 83.157C274.619 83.2926 274.611 83.4139 274.611 83.5209C274.611 83.6174 274.618 83.71 274.631 83.7987C274.646 83.8848 274.67 83.9617 274.701 84.0296C274.735 84.0948 274.778 84.1496 274.83 84.1939C274.885 84.2357 274.952 84.2604 275.03 84.2683C275.079 84.2735 275.126 84.2761 275.171 84.2761C275.246 84.2761 275.321 84.267 275.394 84.2487C275.469 84.2278 275.536 84.1874 275.593 84.1274C275.653 84.0674 275.696 83.9917 275.722 83.9004C275.749 83.8091 275.762 83.7061 275.762 83.5913C275.762 83.4426 275.741 83.2822 275.699 83.11C275.66 82.9378 275.612 82.7696 275.554 82.6052C275.499 82.4383 275.441 82.2843 275.378 82.1435C275.318 82 275.267 81.8865 275.226 81.803L275.91 81.443C275.923 81.4691 275.948 81.52 275.985 81.5957C276.021 81.6687 276.063 81.76 276.11 81.8696C276.157 81.9765 276.205 82.0991 276.255 82.2374C276.304 82.373 276.35 82.5152 276.392 82.6639C276.436 82.8126 276.471 82.9652 276.497 83.1217C276.526 83.2783 276.54 83.4309 276.54 83.5796C276.54 83.8039 276.509 84.0074 276.446 84.19C276.384 84.37 276.29 84.5239 276.165 84.6517C276.039 84.7796 275.883 84.8774 275.695 84.9452C275.512 85.013 275.3 85.047 275.057 85.047H275.03C274.931 85.047 274.83 85.0313 274.729 85C274.629 84.9687 274.534 84.927 274.443 84.8748C274.352 84.82 274.267 84.7574 274.189 84.687C274.11 84.6139 274.044 84.5357 273.989 84.4522C273.832 84.6348 273.655 84.7796 273.457 84.8865C273.259 84.9935 273.049 85.047 272.827 85.047C272.73 85.047 272.63 85.0339 272.526 85.0078C272.424 84.9843 272.326 84.9478 272.232 84.8983C272.138 84.8487 272.052 84.7874 271.974 84.7143C271.898 84.6413 271.839 84.5565 271.798 84.46C271.719 84.5435 271.636 84.6191 271.547 84.687C271.459 84.7522 271.362 84.8083 271.258 84.8552C271.153 84.9022 271.037 84.9387 270.909 84.9648C270.784 84.9883 270.646 85 270.495 85H270.412V84.233ZM274.282 80.3943L274.916 79.7604L275.558 80.4022L274.924 81.0361L274.282 80.3943ZM272.565 80.3904L273.199 79.7526L273.84 80.3943L273.206 81.0322L272.565 80.3904ZM273.508 79.2126L274.087 78.6335L274.67 79.2165L274.091 79.7957L273.508 79.2126ZM278.722 79.3378C278.767 79.8622 278.802 80.3578 278.828 80.8248C278.854 81.2917 278.871 81.7352 278.879 82.1552C278.887 82.5883 278.891 82.9783 278.891 83.3252C278.891 83.5339 278.887 83.8013 278.879 84.1274C278.874 84.4509 278.853 84.7417 278.816 85L278.045 84.957C278.082 84.55 278.107 84.147 278.12 83.7478C278.127 83.5261 278.131 83.3043 278.131 83.0826C278.131 82.9078 278.129 82.7317 278.124 82.5543C278.105 81.8683 278.082 81.2683 278.053 80.7543C278.024 80.2404 277.992 79.8074 277.955 79.4552L278.722 79.3378ZM276.86 78.9778C276.883 78.8604 276.925 78.7483 276.985 78.6413C277.047 78.5317 277.123 78.4365 277.212 78.3557C277.301 78.2722 277.398 78.207 277.505 78.16C277.612 78.1104 277.722 78.0857 277.834 78.0857C277.951 78.0857 278.056 78.1 278.147 78.1287C278.238 78.1574 278.324 78.1887 278.405 78.2226C278.476 78.2513 278.545 78.2761 278.613 78.297C278.683 78.3178 278.759 78.3296 278.84 78.3322H278.855C278.913 78.3322 278.97 78.3178 279.027 78.2891C279.085 78.2604 279.138 78.2252 279.188 78.1835C279.24 78.1391 279.283 78.0961 279.317 78.0543C279.354 78.0126 279.38 77.9813 279.395 77.9604L279.841 78.25C279.839 78.2552 279.826 78.2748 279.802 78.3087C279.779 78.3426 279.745 78.3843 279.701 78.4339C279.659 78.4809 279.608 78.5317 279.548 78.5865C279.488 78.6387 279.42 78.687 279.344 78.7313C279.271 78.7757 279.191 78.8122 279.102 78.8409C279.021 78.867 278.935 78.88 278.844 78.88H278.82C278.703 78.88 278.596 78.8657 278.499 78.837C278.403 78.8057 278.311 78.7743 278.225 78.743C278.142 78.7091 278.062 78.6804 277.987 78.657C277.937 78.6413 277.886 78.6335 277.834 78.6335C277.808 78.6335 277.781 78.6361 277.752 78.6413C277.705 78.6465 277.661 78.67 277.619 78.7117C277.577 78.7509 277.539 78.7978 277.505 78.8526C277.474 78.9048 277.447 78.9583 277.423 79.013C277.402 79.0652 277.387 79.107 277.376 79.1383L276.86 78.9778Z" fill="#4C4F53"/>
</svg>
