<svg width="78" height="86" viewBox="0 0 78 86" fill="none" xmlns="http://www.w3.org/2000/svg">
<path fill-rule="evenodd" clip-rule="evenodd" d="M11.0563 7.30096C8.0904 11.5134 7.4455 18.4337 7.48851 32.1023C7.57445 47.1896 7.27377 48.6939 4.00703 50.4994C0.224489 52.6055 0.00941647 53.4222 0.00941647 66.9189C0.00941647 85.5309 -1.40899 84.6711 30.5708 85.5736C48.0219 86.0896 48.9248 85.9606 51.2886 83.3385C55.2861 78.9113 55.0284 63.4374 53.61 57.8925C52.7502 54.5827 50.085 50.7142 43.8524 49.5106C40.9726 48.9519 37.0611 48.737 30.5708 48.737H20.6845C20.6845 48.6081 20.1257 17.617 27.0889 14.3073C32.9346 11.5564 35.9864 15.8977 36.0723 27.2453C36.0723 29.5233 36.3303 32.1023 36.5455 33.0052C36.8031 33.9936 37.706 34.6813 38.6944 34.7675L42.735 34.9823C50.5578 35.412 50.0422 36.0997 49.9132 25.9128C49.4404 -8.388 17.4608 -1.81151 11.0563 7.30096ZM34.0092 3.94831C40.8005 5.06589 45.4429 15.2958 45.4429 29.1365V32.2313C45.3998 32.2313 41.4455 32.2313 41.5745 32.2313V29.6095C41.5313 20.239 39.4683 14.3073 35.385 11.9432C31.0864 9.40719 24.0803 11.3844 21.4153 14.0064C17.7617 17.617 16.8589 25.1391 16.773 43.149V48.8229L11.744 48.3501C11.744 48.3501 10.4544 26.0847 12.9045 15.7257C14.8387 7.55886 22.4038 2.01404 34.0092 3.94831ZM62.1636 22.9899C61.5618 23.6777 60.702 25.0961 60.3154 26.1707C59.9284 27.2453 58.5958 29.7812 57.3922 31.8015C53.352 38.7649 57.6502 37.6903 58.9397 35.67C60.7879 32.8762 64.9143 28.8356 66.7197 28.0619C68.9549 27.1163 69.0839 25.7409 67.0205 23.8496C64.8284 21.7435 63.4531 21.5285 62.1636 22.9899ZM72.4364 36.7447C71.6629 37.0885 69.4705 38.12 67.4933 39.1088C65.5161 40.0972 62.9803 41.1718 61.8625 41.5588C58.8966 42.5476 55.3723 46.5019 66.5049 44.1378C70.2444 43.3642 73.9411 42.6334 74.6716 42.5476C76.219 42.3755 76.6487 41.0001 76.0469 37.9052C75.6603 35.928 74.8864 35.67 72.4364 36.7447ZM72.6944 50.1555C70.889 50.5852 67.1926 50.9722 64.5277 51.0149C58.1661 51.1439 56.8335 53.5939 62.6364 54.4106C68.439 55.2276 74.027 56.345 75.0585 56.9468C76.0473 57.4628 76.3049 57.3338 77.0357 55.9153C78.2824 53.4653 77.8524 49.1236 76.348 49.3389C76.1759 49.3816 74.4998 49.7686 72.6944 50.1555ZM29.0661 52.6055C50.0422 53.637 49.2255 53.3791 49.5694 59.7838C50.644 80.6305 48.7955 82.2211 23.6933 81.92C2.2446 81.6624 4.43674 83.3385 4.95253 67.7356C5.46833 52.4334 6.543 50.8863 15.9993 51.7889C17.5038 51.9606 23.3924 52.3044 29.0661 52.6055ZM20.8134 60.2994C18.1054 61.9758 18.7933 64.8986 22.275 66.3171L23.9083 67.0048L22.5327 69.9707C20.3405 74.7849 21.888 76.7193 27.3469 75.9885C30.6995 75.5157 30.8716 75.2577 29.7969 72.12C28.6364 68.6813 28.7223 67.5207 30.1839 66.9189C32.7629 65.9305 34.1813 63.7813 33.1926 62.3197C31.3875 59.6117 23.9512 58.3653 20.8134 60.2994Z" fill="url(#paint0_linear_1625_4693)"/>
<defs>
<linearGradient id="paint0_linear_1625_4693" x1="38.8827" y1="0" x2="38.8827" y2="85.8148" gradientUnits="userSpaceOnUse">
<stop stop-color="#203E76"/>
<stop offset="1" stop-color="#51A7F2"/>
</linearGradient>
</defs>
</svg>
