<svg width="46" height="51" viewBox="0 0 46 51" fill="none" xmlns="http://www.w3.org/2000/svg">
<path fill-rule="evenodd" clip-rule="evenodd" d="M6.79252 4.58465C5.07231 7.02784 4.69827 11.0417 4.72322 18.9694C4.77307 27.7201 4.59867 28.5926 2.70396 29.6397C0.510086 30.8613 0.385344 31.335 0.385344 39.1631C0.385344 49.958 -0.437331 49.4593 18.111 49.9828C28.2326 50.2821 28.7563 50.2072 30.1273 48.6864C32.4458 46.1187 32.2964 37.1438 31.4737 33.9277C30.975 32.0081 29.4292 29.7643 25.8142 29.0662C24.144 28.7422 21.8753 28.6176 18.111 28.6176H12.3769C12.3769 28.5428 12.0528 10.568 16.0915 8.64833C19.482 7.05279 21.252 9.57074 21.3018 16.1524C21.3018 17.4736 21.4514 18.9694 21.5763 19.4931C21.7257 20.0664 22.2494 20.4652 22.8226 20.5152L25.1662 20.6399C29.7034 20.8891 29.4044 21.2879 29.3296 15.3795C29.0553 -4.51494 10.5071 -0.700575 6.79252 4.58465ZM20.1052 2.64012C24.0442 3.28831 26.7368 9.22169 26.7368 17.2493V19.0442C26.7118 19.0442 24.4183 19.0442 24.4931 19.0442V17.5236C24.4681 12.0887 23.2715 8.64833 20.9032 7.27716C18.41 5.80627 14.3464 6.95305 12.8007 8.47379C10.6817 10.5679 10.1581 14.9308 10.1082 25.3765V28.6674L7.19141 28.3932C7.19141 28.3932 6.44342 15.4792 7.86447 9.47101C8.98633 4.73424 13.3741 1.51824 20.1052 2.64012ZM36.4348 13.6842C36.0857 14.0831 35.587 14.9058 35.3628 15.5291C35.1384 16.1524 34.3655 17.6232 33.6674 18.795C31.324 22.8338 33.817 22.2105 34.5649 21.0387C35.6368 19.4183 38.0302 17.0748 39.0773 16.626C40.3737 16.0775 40.4485 15.2798 39.2518 14.1829C37.9804 12.9613 37.1827 12.8366 36.4348 13.6842ZM42.393 21.662C41.9443 21.8614 40.6728 22.4597 39.526 23.0332C38.3792 23.6065 36.9084 24.2298 36.2601 24.4542C34.5399 25.0277 32.4958 27.3212 38.9527 25.95C41.1216 25.5013 43.2657 25.0775 43.6894 25.0277C44.5869 24.9279 44.8362 24.1302 44.4871 22.3351C44.2629 21.1883 43.814 21.0387 42.393 21.662ZM42.5426 29.4403C41.4955 29.6895 39.3516 29.914 37.806 29.9388C34.1162 30.0136 33.3433 31.4346 36.709 31.9082C40.0745 32.3821 43.3155 33.0302 43.9138 33.3793C44.4873 33.6785 44.6367 33.6037 45.0606 32.781C45.7837 31.36 45.5343 28.8418 44.6617 28.9666C44.5619 28.9914 43.5898 29.2159 42.5426 29.4403ZM17.2382 30.8613C29.4044 31.4596 28.9307 31.31 29.1301 35.0247C29.7534 47.1158 28.6813 48.0383 14.122 47.8637C1.68175 47.7143 2.95319 48.6864 3.25235 39.6367C3.55151 30.7615 4.17482 29.8642 9.6595 30.3876C10.5321 30.4872 13.9475 30.6867 17.2382 30.8613ZM12.4516 35.3237C10.881 36.2961 11.28 37.9913 13.2994 38.814L14.2467 39.2129L13.4488 40.9331C12.1774 43.7253 13.0749 44.8473 16.2411 44.4234C18.1856 44.1492 18.2854 43.9996 17.6621 42.1797C16.989 40.1852 17.0388 39.5121 17.8865 39.1631C19.3823 38.5898 20.2051 37.3432 19.6316 36.4955C18.5846 34.9249 14.2716 34.202 12.4516 35.3237Z" fill="#203E76"/>
</svg>
