<svg width="258" height="30" viewBox="0 0 258 30" fill="none" xmlns="http://www.w3.org/2000/svg">
<path d="M28.1564 8.25963V8.08845C28.1564 3.63766 24.5357 0 20.1056 0H8.00817C3.57812 0 0 3.63766 0 8.08845V8.25963C0 9.97147 0.51116 11.5549 1.40569 12.8388C1.70387 13.3096 2.04464 13.7375 2.42801 14.1227C3.8763 15.535 5.83574 16.3909 8.00817 16.3909H18.7425C21.0002 16.3909 22.8744 18.2311 22.8744 20.4993C22.8744 22.7675 21.0002 24.6077 18.7425 24.6077H9.41386C7.15624 24.6077 5.32458 22.7675 5.32458 20.4993H0C0 25.7204 4.21707 29.9572 9.41386 29.9572H18.7425C23.9393 29.9572 28.1564 25.7204 28.1564 20.4993C28.1564 18.2311 27.3471 16.1341 26.0266 14.5078C25.8988 14.3795 25.8136 14.2511 25.6858 14.1227C23.9819 12.2397 21.5113 11.0414 18.7425 11.0414H8.00817C6.51729 11.0414 5.28199 9.80029 5.28199 8.30243V8.13124C5.28199 6.63338 6.51729 5.3923 8.00817 5.3923H20.1056C21.5965 5.3923 22.8318 6.63338 22.8318 8.13124V8.30243L28.1564 8.25963Z" fill="white"/>
<path d="M40.4548 5.3495H62.2217V0H40.4548C36.0248 0 32.4467 3.63766 32.4467 8.08845V21.8688C32.4467 26.3195 36.0248 29.9572 40.4548 29.9572H62.2217V24.6077H40.4548C38.964 24.6077 37.7287 23.3666 37.7287 21.8688V16.2197H56.8972V10.8702H37.7287V8.08845C37.7287 6.59059 38.964 5.3495 40.4548 5.3495Z" fill="white"/>
<path d="M90.9662 0V19.087L71.7977 4.23681L66.4731 0.128389V30H71.7977V11.0414L90.9662 25.8916L96.2908 30V0.0427955L90.9662 0Z" fill="white"/>
<path d="M123.289 0L120.563 5.3495L114.045 18.1883L107.528 5.3495L104.802 0H98.8382L101.564 5.3495L114.045 29.9572L126.526 5.3495L129.252 0H123.289Z" fill="white"/>
<path d="M138.044 5.3495H159.811V0H138.044C133.614 0 130.036 3.63766 130.036 8.08845V21.8688C130.036 26.3195 133.614 29.9572 138.044 29.9572H159.811V24.6077H138.044C136.554 24.6077 135.318 23.3666 135.318 21.8688V16.2197H154.487V10.8702H135.318V8.08845C135.318 6.59059 136.554 5.3495 138.044 5.3495Z" fill="white"/>
<path d="M172.113 5.3495H193.88V0H172.113C167.683 0 164.105 3.63766 164.105 8.08845V21.8688C164.105 26.3195 167.683 29.9572 172.113 29.9572H193.88V24.6077H172.113C170.623 24.6077 169.387 23.3666 169.387 21.8688V16.2197H188.556V10.8702H169.387V8.08845C169.387 6.59059 170.623 5.3495 172.113 5.3495Z" fill="white"/>
<path d="M217.939 16.1341C218.749 16.0485 219.515 15.8345 220.239 15.4922C223.008 14.2083 224.925 11.3837 224.925 8.13124C224.925 5.90585 224.031 3.89444 222.582 2.39658C221.134 0.941513 219.132 0.0427955 216.917 0.0427955H198.089V30H203.414V16.2197H208.738C210.655 16.2197 212.316 17.2468 213.254 18.7874L213.381 19.0442L216.235 24.6505L218.961 30H224.925L222.199 24.6505L217.939 16.1341ZM203.414 10.913V5.3923H216.917C217.854 5.3923 218.493 5.82026 218.834 6.16262C219.132 6.4622 219.643 7.14693 219.643 8.13124C219.643 9.20114 219.004 10.1855 218.024 10.6134C217.684 10.7846 217.3 10.8702 216.917 10.8702L203.414 10.913Z" fill="white"/>
<path d="M255.274 24.6077L242.793 0L230.312 24.6077L227.586 29.9572H233.55L236.276 24.6077L242.793 11.7689L249.31 24.6077L252.036 29.9572H258L255.274 24.6077Z" fill="white"/>
</svg>
