<svg width="260" height="31" viewBox="0 0 260 31" fill="none" xmlns="http://www.w3.org/2000/svg">
<path d="M28.2837 8.50963V8.33845C28.2837 3.88766 24.6466 0.25 20.1965 0.25H8.04439C3.5943 0.25 0 3.88766 0 8.33845V8.50963C0 10.2215 0.513471 11.8049 1.41205 13.0888C1.71157 13.5596 2.05389 13.9875 2.43899 14.3727C3.89383 15.785 5.86213 16.6409 8.04439 16.6409H18.8273C21.0951 16.6409 22.9778 18.4811 22.9778 20.7493C22.9778 23.0175 21.0951 24.8577 18.8273 24.8577H9.45643C7.1886 24.8577 5.34866 23.0175 5.34866 20.7493H0C0 25.9704 4.23614 30.2072 9.45643 30.2072H18.8273C24.0476 30.2072 28.2837 25.9704 28.2837 20.7493C28.2837 18.4811 27.4707 16.3841 26.1443 14.7578C26.0159 14.6295 25.9303 14.5011 25.8019 14.3727C24.0904 12.4897 21.6086 11.2914 18.8273 11.2914H8.04439C6.54676 11.2914 5.30587 10.0503 5.30587 8.55243V8.38124C5.30587 6.88338 6.54676 5.6423 8.04439 5.6423H20.1965C21.6942 5.6423 22.9351 6.88338 22.9351 8.38124V8.55243L28.2837 8.50963Z" fill="#51A7F2"/>
<path d="M40.6378 5.5995H62.5031V0.25H40.6378C36.1877 0.25 32.5934 3.88766 32.5934 8.33845V22.1188C32.5934 26.5695 36.1877 30.2072 40.6378 30.2072H62.5031V24.8577H40.6378C39.1402 24.8577 37.8993 23.6166 37.8993 22.1188V16.4697H57.1545V11.1202H37.8993V8.33845C37.8993 6.84059 39.1402 5.5995 40.6378 5.5995Z" fill="#51A7F2"/>
<path d="M91.3775 0.25V19.337L72.1223 4.48681L66.7737 0.378389V30.25H72.1223V11.2914L91.3775 26.1416L96.7262 30.25V0.292795L91.3775 0.25Z" fill="#51A7F2"/>
<path d="M123.846 0.25L121.108 5.5995L114.561 18.4383L108.014 5.5995L105.276 0.25H99.2852L102.024 5.5995L114.561 30.2072L127.098 5.5995L129.837 0.25H123.846Z" fill="#51A7F2"/>
<path d="M138.669 5.5995H160.534V0.25H138.669C134.219 0.25 130.624 3.88766 130.624 8.33845V22.1188C130.624 26.5695 134.219 30.2072 138.669 30.2072H160.534V24.8577H138.669C137.171 24.8577 135.93 23.6166 135.93 22.1188V16.4697H155.185V11.1202H135.93V8.33845C135.93 6.84059 137.171 5.5995 138.669 5.5995Z" fill="#51A7F2"/>
<path d="M172.892 5.5995H194.757V0.25H172.892C168.442 0.25 164.847 3.88766 164.847 8.33845V22.1188C164.847 26.5695 168.442 30.2072 172.892 30.2072H194.757V24.8577H172.892C171.394 24.8577 170.153 23.6166 170.153 22.1188V16.4697H189.408V11.1202H170.153V8.33845C170.153 6.84059 171.394 5.5995 172.892 5.5995Z" fill="#51A7F2"/>
<path d="M218.925 16.3841C219.738 16.2985 220.508 16.0845 221.235 15.7422C224.017 14.4583 225.942 11.6337 225.942 8.38124C225.942 6.15585 225.044 4.14444 223.589 2.64658C222.134 1.19151 220.123 0.292795 217.898 0.292795H198.985V30.25H204.334V16.4697H209.682C211.608 16.4697 213.277 17.4968 214.218 19.0374L214.346 19.2942L217.213 24.9005L219.952 30.25H225.942L223.204 24.9005L218.925 16.3841ZM204.334 11.163V5.6423H217.898C218.839 5.6423 219.481 6.07026 219.823 6.41262C220.123 6.7122 220.636 7.39693 220.636 8.38124C220.636 9.45114 219.994 10.4355 219.01 10.8634C218.668 11.0346 218.283 11.1202 217.898 11.1202L204.334 11.163Z" fill="#51A7F2"/>
<path d="M256.428 24.8577L243.891 0.25L231.354 24.8577L228.615 30.2072H234.606L237.344 24.8577L243.891 12.0189L250.438 24.8577L253.176 30.2072H259.167L256.428 24.8577Z" fill="#51A7F2"/>
</svg>
