<svg width="169" height="20" viewBox="0 0 169 20" fill="none" xmlns="http://www.w3.org/2000/svg">
<path d="M18.4435 5.60477V5.49314C18.4435 2.59083 16.0718 0.21875 13.17 0.21875H5.24566C2.34381 0.21875 0 2.59083 0 5.49314V5.60477C0 6.72105 0.33483 7.7536 0.920781 8.59081C1.1161 8.89778 1.33932 9.17685 1.59044 9.42801C2.53912 10.3489 3.82264 10.9071 5.24566 10.9071H12.2771C13.7559 10.9071 14.9836 12.1071 14.9836 13.5861C14.9836 15.0652 13.7559 16.2652 12.2771 16.2652H6.16645C4.68761 16.2652 3.48781 15.0652 3.48781 13.5861H0C0 16.9908 2.76234 19.7535 6.16645 19.7535H12.2771C15.6812 19.7535 18.4435 16.9908 18.4435 13.5861C18.4435 12.1071 17.9134 10.7396 17.0484 9.67917C16.9647 9.59545 16.9089 9.51173 16.8252 9.42801C15.7091 8.20011 14.0907 7.41872 12.2771 7.41872H5.24566C4.26908 7.41872 3.45991 6.60942 3.45991 5.63268V5.52105C3.45991 4.54431 4.26908 3.73501 5.24566 3.73501H13.17C14.1466 3.73501 14.9557 4.54431 14.9557 5.52105V5.63268L18.4435 5.60477Z" fill="#203E76"/>
<path d="M26.4995 3.70711H40.7577V0.21875H26.4995C23.5976 0.21875 21.2538 2.59083 21.2538 5.49314V14.4791C21.2538 17.3815 23.5976 19.7535 26.4995 19.7535H40.7577V16.2652H26.4995C25.5229 16.2652 24.7137 15.4559 24.7137 14.4791V10.7954H37.2698V7.30709H24.7137V5.49314C24.7137 4.51641 25.5229 3.70711 26.4995 3.70711Z" fill="#203E76"/>
<path d="M59.5864 0.21875V12.6652L47.0303 2.98153L43.5424 0.302471V19.7815H47.0303V7.41872L59.5864 17.1024L63.0742 19.7815V0.246656L59.5864 0.21875Z" fill="#203E76"/>
<path d="M80.7589 0.21875L78.9731 3.70711L74.7041 12.0792L70.435 3.70711L68.6492 0.21875H64.7429L66.5286 3.70711L74.7041 19.7535L82.8795 3.70711L84.6652 0.21875H80.7589Z" fill="#203E76"/>
<path d="M90.4245 3.70711H104.683V0.21875H90.4245C87.5226 0.21875 85.1788 2.59083 85.1788 5.49314V14.4791C85.1788 17.3815 87.5226 19.7535 90.4245 19.7535H104.683V16.2652H90.4245C89.4479 16.2652 88.6387 15.4559 88.6387 14.4791V10.7954H101.195V7.30709H88.6387V5.49314C88.6387 4.51641 89.4479 3.70711 90.4245 3.70711Z" fill="#203E76"/>
<path d="M112.741 3.70711H126.999V0.21875H112.741C109.839 0.21875 107.495 2.59083 107.495 5.49314V14.4791C107.495 17.3815 109.839 19.7535 112.741 19.7535H126.999V16.2652H112.741C111.764 16.2652 110.955 15.4559 110.955 14.4791V10.7954H123.511V7.30709H110.955V5.49314C110.955 4.51641 111.764 3.70711 112.741 3.70711Z" fill="#203E76"/>
<path d="M142.759 10.7396C143.289 10.6838 143.791 10.5443 144.265 10.321C146.079 9.48382 147.335 7.64197 147.335 5.52105C147.335 4.0699 146.749 2.75827 145.8 1.78153C144.851 0.832701 143.54 0.246656 142.089 0.246656H129.756V19.7815H133.244V10.7954H136.732C137.987 10.7954 139.075 11.4652 139.689 12.4699L139.773 12.6373L141.643 16.2931L143.428 19.7815H147.335L145.549 16.2931L142.759 10.7396ZM133.244 7.335V3.73501H142.089C142.703 3.73501 143.121 4.01408 143.345 4.23734C143.54 4.43268 143.875 4.87919 143.875 5.52105C143.875 6.21872 143.456 6.86058 142.814 7.13965C142.591 7.25128 142.34 7.30709 142.089 7.30709L133.244 7.335Z" fill="#203E76"/>
<path d="M167.214 16.2652L159.039 0.21875L150.863 16.2652L149.078 19.7535H152.984L154.77 16.2652L159.039 7.89313L163.308 16.2652L165.094 19.7535H169L167.214 16.2652Z" fill="#203E76"/>
</svg>
