<svg width="87" height="74" viewBox="0 0 87 74" fill="none" xmlns="http://www.w3.org/2000/svg">
<path d="M56.5486 5.50672C46.5489 3.1147 54.8909 -2.9196 68.3668 4.03891C105.906 23.3925 79.2755 78.4083 35.0518 72.8089C16.068 70.4167 3.66171 60.4138 0.506684 45.0288C-3.39701 26.219 17.6187 0.940143 37.1372 0.940143C45.0515 0.940143 47.5113 4.90872 39.7573 5.12619C30.9339 5.39801 22.1106 12.0847 14.3032 24.4796C-4.09229 53.7274 32.164 82.2136 61.0405 61.175C85.3718 43.3981 81.896 11.5954 56.5486 5.50672Z" fill="url(#paint0_linear_1625_4685)"/>
<path d="M30.7199 42.4194C33.073 42.2564 33.2866 42.4194 35.6398 46.2251C40.506 54.2163 49.0087 53.401 52.9658 44.4852C53.5542 43.1805 54.3025 41.8758 54.6231 41.6587C59.9707 38.0705 61.2008 46.7687 56.121 52.2592C52.7518 55.9016 42.8054 57.2063 36.3885 54.7603C28.6345 51.8245 24.5704 42.9088 30.7199 42.4194Z" fill="url(#paint1_linear_1625_4685)"/>
<path d="M58.9018 28.8288C56.9767 24.1536 53.9823 23.0119 51.8432 26.1648C49.2764 30.0247 50.7201 33.6129 54.8376 33.6129C58.9555 33.6129 60.2385 32.1452 58.9018 28.8288Z" fill="url(#paint2_linear_1625_4685)"/>
<path d="M30.9876 25.4583C34.3031 24.0448 36.7096 25.7843 36.7096 29.59C36.7096 34.7 32.1107 37.5812 28.7419 34.4828C26.6027 32.4712 27.9932 26.7084 30.9876 25.4583Z" fill="url(#paint3_linear_1625_4685)"/>
<defs>
<linearGradient id="paint0_linear_1625_4685" x1="43.1379" y1="0.793091" x2="43.1379" y2="73.2069" gradientUnits="userSpaceOnUse">
<stop stop-color="#203E76"/>
<stop offset="1" stop-color="#51A7F2"/>
</linearGradient>
<linearGradient id="paint1_linear_1625_4685" x1="43.1379" y1="0.793091" x2="43.1379" y2="73.2069" gradientUnits="userSpaceOnUse">
<stop stop-color="#203E76"/>
<stop offset="1" stop-color="#51A7F2"/>
</linearGradient>
<linearGradient id="paint2_linear_1625_4685" x1="43.1379" y1="0.793091" x2="43.1379" y2="73.2069" gradientUnits="userSpaceOnUse">
<stop stop-color="#203E76"/>
<stop offset="1" stop-color="#51A7F2"/>
</linearGradient>
<linearGradient id="paint3_linear_1625_4685" x1="43.1379" y1="0.793091" x2="43.1379" y2="73.2069" gradientUnits="userSpaceOnUse">
<stop stop-color="#203E76"/>
<stop offset="1" stop-color="#51A7F2"/>
</linearGradient>
</defs>
</svg>
