<svg width="51" height="42" viewBox="0 0 51 42" fill="none" xmlns="http://www.w3.org/2000/svg">
<path d="M33.2782 2.7339C27.4784 1.34653 32.3167 -2.15336 40.1328 1.88258C61.9057 13.1076 46.4598 45.0168 20.8101 41.7692C9.79946 40.3817 2.60379 34.58 0.773876 25.6567C-1.49027 14.747 10.6989 0.08529 22.0196 0.08529C26.6099 0.08529 28.0365 2.38707 23.5392 2.5132C18.4217 2.67085 13.3041 6.54913 8.77585 13.7381C-1.89353 30.7019 19.1351 47.2239 35.8835 35.0215C49.9957 24.7109 47.9797 6.26535 33.2782 2.7339Z" fill="#203E76"/>
<path d="M18.2975 24.1432C19.6624 24.0487 19.7862 24.1432 21.1511 26.3506C23.9735 30.9855 28.905 30.5126 31.2002 25.3414C31.5415 24.5847 31.9755 23.828 32.1614 23.702C35.263 21.6209 35.9765 26.6658 33.0302 29.8504C31.076 31.9629 25.3071 32.7196 21.5853 31.301C17.088 29.5982 14.7308 24.4271 18.2975 24.1432Z" fill="#203E76"/>
<path d="M34.643 16.2607C33.5265 13.5491 31.7897 12.8869 30.5491 14.7156C29.0603 16.9544 29.8977 19.0355 32.2858 19.0355C34.6742 19.0355 35.4183 18.1842 34.643 16.2607Z" fill="#203E76"/>
<path d="M18.4528 14.3058C20.3758 13.486 21.7715 14.4949 21.7715 16.7022C21.7715 19.666 19.1042 21.3371 17.1503 19.54C15.9096 18.3733 16.7161 15.0309 18.4528 14.3058Z" fill="#203E76"/>
</svg>
