<svg width="48" height="49" viewBox="0 0 48 49" fill="none" xmlns="http://www.w3.org/2000/svg">
<path d="M12.1499 24.3124C18.5923 21.5056 22.8883 19.6551 25.0378 18.7611C31.175 16.2084 32.4503 15.7649 33.2815 15.7501C33.4643 15.7471 33.8731 15.7924 34.1379 16.0072C34.3614 16.1886 34.4229 16.4337 34.4524 16.6057C34.4818 16.7777 34.5185 17.1695 34.4893 17.4757C34.1567 20.9701 32.7177 29.4502 31.9856 33.3641C31.6758 35.0202 31.0658 35.5754 30.4753 35.6298C29.1919 35.7479 28.2174 34.7817 26.9744 33.9669C25.0294 32.6919 23.9305 31.8982 22.0425 30.654C19.8606 29.2162 21.2751 28.4259 22.5185 27.1344C22.844 26.7964 28.4985 21.6532 28.6079 21.1866C28.6216 21.1283 28.6343 20.9108 28.5051 20.7959C28.3759 20.6811 28.1851 20.7203 28.0475 20.7516C27.8524 20.7958 24.7452 22.8496 18.7258 26.9128C17.8439 27.5185 17.045 27.8136 16.3292 27.7981C15.5402 27.781 14.0223 27.3519 12.894 26.9852C11.51 26.5353 10.41 26.2974 10.5058 25.5334C10.5557 25.1354 11.1037 24.7285 12.1499 24.3124Z" fill="white"/>
</svg>
