<svg width="100" height="96" viewBox="0 0 100 96" fill="none" xmlns="http://www.w3.org/2000/svg">
<path fill-rule="evenodd" clip-rule="evenodd" d="M73.1544 5.81418C69.4096 10.8896 65.369 20.9906 58.3723 40.7497C52.1637 58.2911 49.6996 63.7114 47.384 64.9432C41.4215 68.1461 38.4159 78.543 41.0769 86.427C46.349 101.899 73.253 95.7397 78.4265 81.5981C79.2642 79.2821 79.0674 75.636 79.0674 67.062C89.5134 40.602 86.1628 48.0915 90.7944 33.3094C95.9191 16.9995 91.928 14.0921 86.015 28.6282C78.3283 47.6482 70.3951 64.5 70.4937 73.5664C70.6906 86.8211 51.2274 96.4789 47.384 85.2442C44.8707 77.8534 48.4681 70.5607 53.9866 66.9637C57.1404 64.9432 56.7459 65.8796 63.743 44.8886C70.1979 25.4254 74.2876 14.7821 77.885 9.16484C85.6209 -2.85808 94.49 5.96204 93.0612 10.791C90.6961 18.7241 99.467 16.7531 99.467 7.48945C99.5652 0.689613 80.102 -3.5972 73.1544 5.81418ZM1.70671 40.602C-0.806276 50.5061 0.770484 59.1289 4.90955 58.0942C7.32398 57.5029 7.42257 57.2074 7.42257 50.5552C7.42257 36.6105 12.5964 27.0022 22.6482 22.2716C27.1321 20.1529 38.3667 19.9065 40.3869 21.8775C42.2101 23.7007 47.8276 22.3702 48.5667 20.0051C49.355 17.5414 47.1376 18.3791 40.19 17.0486C30.4831 15.2749 7.22544 18.9214 1.70671 40.602ZM42.161 32.3239C27.5757 33.8512 17.9671 44.9872 19.7904 58.1929C20.7264 65.0914 24.6687 66.5201 24.6687 59.9175C24.6687 46.9091 29.3495 38.3846 37.7754 35.7731C41.6679 34.5412 41.3724 34.5904 41.3724 35.7731C41.3724 36.6105 41.7174 36.7586 43.4911 36.7586C46.694 36.7586 49.6014 34.1962 48.2709 32.5207C47.6795 31.7816 47.4331 31.7816 42.161 32.3239ZM72.563 32.6194C70.6415 33.999 69.656 36.3641 70.7401 37.1032C73.0066 38.7787 78.131 35.97 77.786 33.2107C77.5891 31.7816 74.3367 31.3875 72.563 32.6194ZM73.1544 40.1584C72.3166 40.6511 70.937 41.2425 70.1488 41.4394C67.685 41.9816 67.6359 42.1294 63.1025 53.955C58.0764 67.1606 57.6331 71.2995 56.204 71.2995C52.8043 71.2995 50.0941 74.5023 50.1432 78.4939C50.2419 87.4616 64.088 84.5546 65.8618 75.1924C66.2067 73.4677 65.3199 71.7922 64.088 71.7922C62.9052 71.7922 66.9459 62.1349 73.6471 48.732C77.6382 40.7497 77.885 40.0597 76.6531 39.567C75.3718 39.0742 74.7804 39.1729 73.1544 40.1584ZM45.8566 45.5295C36.0016 46.9582 32.1091 49.8161 32.0596 55.5814C32.0105 60.7549 35.3116 61.7404 36.1989 56.8132C36.593 54.6941 38.0217 51.2449 39.1059 49.8652C40.5346 47.9929 43.4911 50.1116 46.0044 48.1406C48.5664 46.0714 49.5027 44.9872 45.8566 45.5295Z" fill="url(#paint0_linear_1625_4689)"/>
<defs>
<linearGradient id="paint0_linear_1625_4689" x1="49.9837" y1="0.375" x2="49.9837" y2="95.4897" gradientUnits="userSpaceOnUse">
<stop stop-color="#203E76"/>
<stop offset="1" stop-color="#51A7F2"/>
</linearGradient>
</defs>
</svg>
