<svg width="39" height="37" viewBox="0 0 39 37" fill="none" xmlns="http://www.w3.org/2000/svg">
<path fill-rule="evenodd" clip-rule="evenodd" d="M28.093 2.10315C26.6451 4.06565 25.0827 7.97137 22.3773 15.6116C19.9767 22.3942 19.0239 24.4901 18.1285 24.9664C15.823 26.2048 14.6608 30.225 15.6897 33.2734C17.7283 39.256 28.1312 36.8744 30.1316 31.4063C30.4555 30.5107 30.3794 29.1009 30.3794 25.7856C34.4185 15.5544 33.1229 18.4504 34.9138 12.7346C36.8954 6.42813 35.3522 5.30395 33.0658 10.9246C30.0936 18.279 27.0261 24.795 27.0642 28.3007C27.1404 33.4258 19.6146 37.1602 18.1285 32.8161C17.1567 29.9583 18.5477 27.1385 20.6815 25.7476C21.9009 24.9664 21.7484 25.3285 24.454 17.2119C26.9498 9.68614 28.5312 5.57075 29.9222 3.39874C32.9134 -1.25012 36.3428 2.16032 35.7903 4.02752C34.8758 7.09499 38.2672 6.33287 38.2672 2.75092C38.3052 0.12165 30.7794 -1.53592 28.093 2.10315ZM0.466595 15.5544C-0.505093 19.384 0.104587 22.7182 1.70502 22.3181C2.63861 22.0894 2.67673 21.9752 2.67673 19.403C2.67673 14.0111 4.67726 10.2959 8.56399 8.46669C10.2978 7.64744 14.6418 7.55217 15.4229 8.31429C16.1279 9.01928 18.3 8.50482 18.5858 7.59031C18.8906 6.63766 18.0332 6.96159 15.3468 6.44713C11.5935 5.76128 2.6005 7.17126 0.466595 15.5544ZM16.1089 12.3536C10.4693 12.9441 6.75395 17.2501 7.45894 22.3562C7.82086 25.0237 9.34525 25.5761 9.34525 23.0231C9.34525 17.9932 11.1551 14.6971 14.4131 13.6873C15.9182 13.2109 15.804 13.2299 15.804 13.6873C15.804 14.0111 15.9374 14.0683 16.6232 14.0683C17.8617 14.0683 18.9859 13.0775 18.4714 12.4297C18.2427 12.1439 18.1475 12.1439 16.1089 12.3536ZM27.8644 12.4678C27.1214 13.0013 26.7403 13.9158 27.1595 14.2016C28.0359 14.8494 30.0173 13.7634 29.8839 12.6965C29.8078 12.1439 28.5502 11.9915 27.8644 12.4678ZM28.093 15.3829C27.7691 15.5734 27.2356 15.8021 26.9308 15.8782C25.9782 16.0879 25.9592 16.145 24.2063 20.7176C22.2629 25.8238 22.0915 27.4241 21.5389 27.4241C20.2243 27.4241 19.1764 28.6626 19.1954 30.206C19.2335 33.6735 24.5874 32.5494 25.2732 28.9294C25.4066 28.2625 25.0637 27.6147 24.5874 27.6147C24.13 27.6147 25.6924 23.8805 28.2836 18.698C29.8268 15.6116 29.9222 15.3448 29.4459 15.1542C28.9504 14.9637 28.7217 15.0018 28.093 15.3829ZM17.5379 17.4597C13.7273 18.0122 12.2222 19.1172 12.2031 21.3465C12.1841 23.3469 13.4605 23.7279 13.8036 21.8228C13.956 21.0034 14.5084 19.6697 14.9276 19.1362C15.4801 18.4122 16.6232 19.2315 17.595 18.4694C18.5857 17.6693 18.9477 17.2501 17.5379 17.4597Z" fill="#203E76"/>
</svg>
