<svg width="48" height="49" viewBox="0 0 48 49" fill="none" xmlns="http://www.w3.org/2000/svg">
<path fill-rule="evenodd" clip-rule="evenodd" d="M32.4 16.2C30.15 13.95 27.15 12.75 24 12.75C17.4 12.75 12 18.15 12 24.75C12 26.85 12.6 28.95 13.65 30.75L12 36.75L18.3 35.1C20.1 36 22.05 36.6 24 36.6C30.6 36.6 36 31.2 36 24.6C36 21.45 34.65 18.45 32.4 16.2ZM24 34.65C22.2 34.65 20.4 34.2 18.9 33.3L18.6 33.15L14.85 34.2L15.9 30.6L15.6 30.15C14.55 28.5 14.1 26.7 14.1 24.9C14.1 19.5 18.6 15 24 15C26.7 15 29.1 16.05 31.05 17.85C33 19.8 33.9 22.2 33.9 24.9C33.9 30.15 29.55 34.65 24 34.65ZM29.4 27.15C29.1 27 27.6 26.25 27.3 26.25C27 26.1 26.85 26.1 26.7 26.4C26.55 26.7 25.95 27.3 25.8 27.6C25.65 27.75 25.5 27.75 25.2 27.75C24.9 27.6 24 27.3 22.8 26.25C21.9 25.5 21.3 24.45 21.15 24.15C21 23.85 21.15 23.7 21.3 23.55C21.45 23.4 21.6 23.25 21.75 23.1C21.9 22.95 21.9 22.8 22.05 22.65C22.2 22.5 22.05 22.35 22.05 22.2C22.05 22.05 21.45 20.55 21.15 19.95C21 19.5 20.7 19.5 20.55 19.5C20.4 19.5 20.25 19.5 19.95 19.5C19.8 19.5 19.5 19.5 19.2 19.8C18.9 20.1 18.15 20.85 18.15 22.35C18.15 23.85 19.2 25.2 19.35 25.5C19.5 25.65 21.45 28.8 24.45 30C27 31.05 27.45 30.75 28.05 30.75C28.65 30.75 29.85 30 30 29.4C30.3 28.65 30.3 28.05 30.15 28.05C30 27.3 29.7 27.3 29.4 27.15Z" fill="white"/>
</svg>
